<svg width="38" height="44" viewBox="0 0 38 44" fill="none" xmlns="http://www.w3.org/2000/svg">
<path d="M37.8158 0.451138V43.5529C37.8158 43.9202 37.3966 44.1317 37.1012 43.9122L30.382 38.9017C30.2702 38.8179 30.2023 38.6861 30.2023 38.5424V4.83876C30.2023 4.68705 30.2782 4.54732 30.406 4.46348L37.1251 0.0758542C37.4246 -0.119772 37.8158 0.0958161 37.8158 0.451138ZM28.3139 0.243534L22.9282 4.76291C22.8284 4.84675 22.7685 4.9745 22.7685 5.10625V38.8139C22.7685 38.9456 22.8244 39.0694 22.9242 39.1533L28.31 43.8044C28.6014 44.0559 29.0485 43.8483 29.0485 43.465V0.586879C29.0485 0.207603 28.6054 -9.94653e-07 28.3139 0.243534ZM20.6446 0.519008L16.1172 5.68515C16.0454 5.76499 16.0054 5.87279 16.0054 5.98058V38.0913C16.0054 38.1991 16.0454 38.3069 16.1172 38.3867L20.6446 43.5529C20.9161 43.8643 21.4271 43.6726 21.4271 43.2574V0.814444C21.4271 0.399237 20.9161 0.207603 20.6446 0.519008ZM13.7178 1.34144L10.0448 8.75928C10.0129 8.81916 9.99691 8.89103 9.99691 8.9589V34.8135C9.99691 34.8814 10.0129 34.9453 10.0408 35.0052L13.7138 42.6665C13.9214 43.0977 14.5642 42.95 14.5642 42.4749V1.54106C14.5642 1.06596 13.9254 0.918246 13.7138 1.34144H13.7178ZM7.02259 2.36748L4.68306 9.70148C4.66709 9.74539 4.6631 9.7933 4.6631 9.83722V34.2386C4.6631 34.2865 4.67108 34.3305 4.68306 34.3744L7.02259 41.7084C7.1783 42.1954 7.89692 42.0837 7.89692 41.5726V2.50322C7.89692 1.9922 7.1783 1.88041 7.02259 2.36748ZM1.01406 6.03647L0 13.2826C0 13.3066 0 13.3266 0 13.3465V30.2782L1.00608 37.7958C1.08193 38.3508 1.89638 38.2949 1.89638 37.736V6.09636C1.89638 5.53743 1.08193 5.48153 1.00608 6.03647H1.01406Z" fill="url(#paint0_linear_107_472)"/>
<defs>
<linearGradient id="paint0_linear_107_472" x1="-11.2146" y1="21.998" x2="38.5424" y2="21.998" gradientUnits="userSpaceOnUse">
<stop stop-color="#0FDB57"/>
<stop offset="0.5" stop-color="#F5E530"/>
<stop offset="1" stop-color="#FF591F"/>
</linearGradient>
</defs>
</svg>
