<svg width="32" height="32" viewBox="0 0 32 32" fill="none" xmlns="http://www.w3.org/2000/svg">
<g clip-path="url(#clip0_203_567)">
<path d="M16 32C24.8365 32 32 24.8365 32 16C32 7.16344 24.8365 0 16 0C7.16344 0 0 7.16344 0 16C0 24.8365 7.16344 32 16 32Z" fill="#EDBC04"/>
<path fill-rule="evenodd" clip-rule="evenodd" d="M16.2115 11.0903L19.4231 14.3025C19.5387 14.4181 19.726 14.4181 19.8414 14.3025L21.5343 12.6093C21.6499 12.4938 21.6499 12.3066 21.5343 12.1911L16.2113 6.86695C16.0959 6.75138 15.9086 6.75138 15.7931 6.86695L10.4721 12.1892C10.3566 12.3046 10.3566 12.4919 10.4721 12.6074L12.1649 14.3006C12.2804 14.4162 12.4677 14.4162 12.5832 14.3006L15.7931 11.0903C15.9087 10.9747 16.0959 10.9747 16.2115 11.0903ZM8.56212 14.098L6.86921 15.7913C6.75372 15.9068 6.75372 16.094 6.86921 16.2095L8.56198 17.9028C8.67746 18.0183 8.86481 18.0183 8.9803 17.9028L10.6732 16.2095C10.7887 16.094 10.7887 15.9067 10.6732 15.7912L8.98036 14.0981C8.86495 13.9825 8.67769 13.9825 8.56212 14.098ZM21.5332 19.8102L16.2094 25.1353C16.0938 25.2507 15.9066 25.2507 15.791 25.1351L10.4672 19.8105C10.3516 19.6948 10.3517 19.5075 10.4675 19.3919L12.1629 17.7009C12.2784 17.5857 12.4655 17.5859 12.5809 17.7012L15.791 20.9118C15.9065 21.0275 16.0938 21.0275 16.2094 20.9118L19.421 17.6996C19.5366 17.5841 19.7238 17.5841 19.8393 17.6995L21.533 19.3918C21.6487 19.5073 21.6487 19.6947 21.5332 19.8102ZM23.0218 14.099L21.3289 15.7923C21.2133 15.9077 21.2133 16.0951 21.3289 16.2104L23.0217 17.9037C23.1372 18.0192 23.3245 18.0192 23.4401 17.9037L25.1329 16.2104C25.2484 16.0949 25.2484 15.9077 25.1329 15.7922L23.4401 14.099C23.3245 13.9835 23.1373 13.9835 23.0218 14.099ZM16.2111 14.0668L17.9361 15.7922C18.0516 15.9077 18.0516 16.0948 17.9361 16.2105L16.2111 17.9359C16.0956 18.0514 15.9083 18.0514 15.7928 17.9359L14.0678 16.2105C13.9523 16.0949 13.9523 15.9077 14.0678 15.7922L15.7928 14.0668C15.9083 13.9513 16.0956 13.9513 16.2111 14.0668Z" fill="white"/>
</g>
<defs>
<clipPath id="clip0_203_567">
<rect width="32" height="32" fill="white"/>
</clipPath>
</defs>
</svg>
