<svg width="42" height="42" viewBox="0 0 42 42" fill="none" xmlns="http://www.w3.org/2000/svg">
<rect width="42" height="42" rx="12" fill="#101010"/>
<rect x="0.5" y="0.5" width="41" height="41" rx="11.5" stroke="url(#paint0_linear_1650_11209)" stroke-opacity="0.12"/>
<g clip-path="url(#clip0_1650_11209)">
<path d="M32.7816 14.2194L31.2816 12.7194C31.0146 12.4509 30.5901 12.4269 30.2916 12.6579L17.2416 22.8069L11.7006 18.6504C11.4051 18.4254 10.9836 18.4554 10.7211 18.7194L9.21956 20.2194C8.94506 20.4939 8.92556 20.9319 9.17456 21.2304L16.6746 30.2304C16.8096 30.3924 17.0061 30.4899 17.2161 30.4989C17.2281 30.4989 17.2386 30.4989 17.2491 30.4989C17.4471 30.4989 17.6391 30.4209 17.7801 30.2799L32.7816 15.2814C33.0741 14.9889 33.0741 14.5134 32.7816 14.2209V14.2194Z" fill="#BFFA00"/>
</g>
<defs>
<linearGradient id="paint0_linear_1650_11209" x1="21" y1="0" x2="21" y2="42" gradientUnits="userSpaceOnUse">
<stop stop-color="white"/>
<stop offset="1" stop-color="white" stop-opacity="0"/>
</linearGradient>
<clipPath id="clip0_1650_11209">
<rect width="24" height="24" fill="white" transform="translate(9 9.5)"/>
</clipPath>
</defs>
</svg>
