<svg width="84" height="84" viewBox="0 0 84 84" fill="none" xmlns="http://www.w3.org/2000/svg">
<g clip-path="url(#clip0_1650_11542)">
<path d="M42 72.1875V42V47.25" stroke="white" stroke-width="6" stroke-miterlimit="10" stroke-linecap="square"/>
<path d="M27.5625 56.4375L42 42L56.4375 56.4375" stroke="white" stroke-width="6" stroke-miterlimit="10" stroke-linecap="square"/>
<path d="M52.5001 72.0799C58.4338 71.5849 64.1056 69.4183 68.8582 65.8313C73.6107 62.2442 77.2492 57.3836 79.3519 51.813C81.4546 46.2424 81.9354 40.1898 80.7385 34.3571C79.5416 28.5243 76.7161 23.1503 72.5895 18.8579C68.4629 14.5655 63.2042 11.5306 57.4231 10.1051C51.642 8.67953 45.5752 8.92169 39.9262 10.8035C34.2771 12.6853 29.277 16.1297 25.5057 20.7373C21.7343 25.3449 19.3461 30.9271 18.6179 36.8367C14.0945 37.2856 9.91669 39.4557 6.94838 42.8983C3.98007 46.341 2.44836 50.7927 2.67002 55.3329C2.89169 59.8731 4.84977 64.1544 8.13933 67.2915C11.4289 70.4286 15.7983 72.1814 20.3439 72.1876H31.5001" stroke="white" stroke-width="6" stroke-miterlimit="10" stroke-linecap="square"/>
</g>
<defs>
<clipPath id="clip0_1650_11542">
<rect width="84" height="84" fill="white"/>
</clipPath>
</defs>
</svg>
