<svg width="24" height="24" viewBox="0 0 24 24" fill="none" xmlns="http://www.w3.org/2000/svg">
<path fill-rule="evenodd" clip-rule="evenodd" d="M19.2 12C19.2 12.33 19.18 12.64 19.14 12.94L21.15 14.52C21.34 14.66 21.39 14.91 21.27 15.13L19.35 18.45C19.23 18.67 18.98 18.75 18.76 18.67L16.37 17.71C15.88 18.09 15.34 18.41 14.75 18.65L14.39 21.19C14.36 21.43 14.16 21.6 13.92 21.6H10.08C9.83999 21.6 9.64999 21.43 9.59999 21.19L9.23999 18.65C8.64999 18.41 8.11999 18.09 7.61999 17.71L5.22999 18.67C5.00999 18.74 4.75999 18.67 4.63999 18.45L2.71999 15.13C2.60999 14.93 2.65999 14.66 2.83999 14.52L4.86999 12.94C4.81999 12.64 4.79999 12.31 4.79999 12C4.79999 11.69 4.83999 11.36 4.88999 11.06L2.85999 9.48C2.65999 9.34 2.61999 9.08 2.73999 8.87L4.64999 5.55C4.76999 5.33 5.01999 5.25 5.23999 5.33L7.62999 6.29C8.11999 5.92 8.65999 5.59 9.24999 5.35L9.60999 2.81C9.64999 2.57 9.83999 2.4 10.08 2.4H13.92C14.16 2.4 14.36 2.57 14.4 2.81L14.76 5.35C15.35 5.59 15.88 5.91 16.38 6.29L18.77 5.33C18.99 5.26 19.24 5.33 19.36 5.55L21.28 8.87C21.39 9.07 21.34 9.34 21.16 9.48L19.13 11.06C19.18 11.36 19.2 11.68 19.2 12ZM8.39999 12C8.39999 13.98 10.02 15.6 12 15.6C13.98 15.6 15.6 13.98 15.6 12C15.6 10.02 13.98 8.4 12 8.4C10.02 8.4 8.39999 10.02 8.39999 12Z" fill="#1A1A1B"/>
</svg>
