<svg width="52" height="52" viewBox="0 0 52 52" fill="none" xmlns="http://www.w3.org/2000/svg">
<g filter="url(#filter0_f_298_2081)">
<circle cx="26" cy="26" r="16" fill="#F7692C" fill-opacity="0.3"/>
</g>
<path d="M26 35.5C24.6872 35.5 23.4529 35.2503 22.2971 34.7509C21.1413 34.2516 20.1359 33.5743 19.2808 32.7192C18.4256 31.8641 17.7484 30.8586 17.249 29.7029C16.7497 28.5471 16.5 27.3128 16.5 26C16.5 24.6872 16.7497 23.4529 17.249 22.2971C17.7484 21.1413 18.4256 20.1359 19.2808 19.2808C20.1359 18.4256 21.1413 17.7484 22.2971 17.2491C23.4529 16.7497 24.6872 16.5 26 16.5C28.382 16.5 30.4519 17.2657 32.2096 18.7971C33.9673 20.3285 35.0198 22.2346 35.3673 24.5154H33.8365C33.5904 23.1833 33.0436 21.9901 32.1962 20.9356C31.3487 19.8811 30.2833 19.0961 29 18.5808V19C29 19.55 28.8041 20.0208 28.4125 20.4125C28.0208 20.8041 27.55 21 27 21H25V23C25 23.2833 24.9041 23.5208 24.7125 23.7125C24.5208 23.9041 24.2833 24 24 24H22V26H23.923V29H23L18.2 24.2C18.15 24.5 18.1041 24.8 18.0625 25.1C18.0208 25.4 18 25.7 18 26C18 28.1833 18.7666 30.0583 20.3 31.625C21.8333 33.1916 23.7333 33.9833 26 34V35.5ZM35.0615 35.1153L31.7365 31.8096C31.4122 32.016 31.0628 32.1826 30.6884 32.3096C30.3141 32.4365 29.9179 32.5 29.5 32.5C28.3846 32.5 27.4391 32.1121 26.6635 31.3365C25.8878 30.5609 25.5 29.6153 25.5 28.5C25.5 27.3846 25.8878 26.4391 26.6635 25.6635C27.4391 24.8878 28.3846 24.5 29.5 24.5C30.6153 24.5 31.5609 24.8878 32.3365 25.6635C33.1121 26.4391 33.5 27.3846 33.5 28.5C33.5 28.9243 33.4349 29.3253 33.3048 29.7029C33.1746 30.0804 33.0031 30.4314 32.7903 30.7557L36.1153 34.0615L35.0615 35.1153ZM29.5 31C30.2 31 30.7916 30.7583 31.275 30.275C31.7583 29.7916 32 29.2 32 28.5C32 27.8 31.7583 27.2083 31.275 26.725C30.7916 26.2416 30.2 26 29.5 26C28.8 26 28.2083 26.2416 27.725 26.725C27.2416 27.2083 27 27.8 27 28.5C27 29.2 27.2416 29.7916 27.725 30.275C28.2083 30.7583 28.8 31 29.5 31Z" fill="#EF5816"/>
<defs>
<filter id="filter0_f_298_2081" x="0" y="0" width="52" height="52" filterUnits="userSpaceOnUse" color-interpolation-filters="sRGB">
<feFlood flood-opacity="0" result="BackgroundImageFix"/>
<feBlend mode="normal" in="SourceGraphic" in2="BackgroundImageFix" result="shape"/>
<feGaussianBlur stdDeviation="5" result="effect1_foregroundBlur_298_2081"/>
</filter>
</defs>
</svg>
