<svg width="52" height="52" viewBox="0 0 52 52" fill="none" xmlns="http://www.w3.org/2000/svg">
<g filter="url(#filter0_f_298_2076)">
<circle cx="26" cy="26" r="16" fill="#F7A62C" fill-opacity="0.3"/>
</g>
<path d="M25.7883 33.971C25.887 33.971 25.9873 33.9479 26.0892 33.9017C26.1912 33.8556 26.2716 33.803 26.3306 33.744L34.3287 25.746C34.5543 25.5203 34.7242 25.2793 34.8383 25.0229C34.9524 24.7665 35.0094 24.4973 35.0094 24.2152C35.0094 23.9229 34.9524 23.6415 34.8383 23.371C34.7242 23.1004 34.5543 22.8575 34.3287 22.6421L30.3287 18.6421C30.1133 18.4165 29.8799 18.2514 29.6287 18.1469C29.3774 18.0424 29.1056 17.9902 28.8133 17.9902C28.5312 17.9902 28.2604 18.0424 28.0008 18.1469C27.7411 18.2514 27.5017 18.4165 27.2825 18.6421L26.7094 19.2152L28.5594 21.0806C28.7838 21.2947 28.9495 21.5389 29.0565 21.8133C29.1636 22.0877 29.2171 22.3723 29.2171 22.6671C29.2171 23.2774 29.0132 23.7864 28.6056 24.194C28.1979 24.6017 27.6889 24.8056 27.0787 24.8056C26.7838 24.8056 26.4982 24.7568 26.2219 24.6594C25.9456 24.562 25.7005 24.4062 25.4864 24.1921L23.5921 22.3133L19.246 26.6594C19.1703 26.7351 19.1136 26.8197 19.0758 26.9133C19.0379 27.0069 19.019 27.103 19.019 27.2017C19.019 27.3864 19.0819 27.5441 19.2075 27.6748C19.3331 27.8056 19.4883 27.871 19.6729 27.871C19.7716 27.871 19.8719 27.8479 19.9739 27.8018C20.0758 27.7556 20.1562 27.703 20.2152 27.6441L23.4998 24.3594L24.5537 25.4133L21.2844 28.6979C21.2088 28.7735 21.152 28.8581 21.1142 28.9517C21.0764 29.0453 21.0575 29.1415 21.0575 29.2402C21.0575 29.4184 21.1219 29.5719 21.2508 29.7008C21.3796 29.8296 21.5331 29.8941 21.7114 29.8941C21.8101 29.8941 21.9104 29.871 22.0123 29.8248C22.1142 29.7787 22.1947 29.7261 22.2537 29.6671L25.6537 26.2825L26.7075 27.3363L23.3229 30.7363C23.2536 30.7953 23.1985 30.8758 23.1575 30.9777C23.1165 31.0796 23.096 31.1799 23.096 31.2787C23.096 31.4569 23.1604 31.6104 23.2892 31.7392C23.4181 31.8681 23.5716 31.9325 23.7498 31.9325C23.8485 31.9325 23.9447 31.9136 24.0383 31.8758C24.1319 31.838 24.2165 31.7812 24.2921 31.7056L27.6921 28.321L28.746 29.3748L25.346 32.7748C25.2703 32.8504 25.2136 32.9382 25.1758 33.0383C25.1379 33.1383 25.119 33.2344 25.119 33.3267C25.119 33.5113 25.1876 33.6649 25.3248 33.7873C25.462 33.9097 25.6165 33.971 25.7883 33.971ZM25.7729 35.4709C25.2075 35.4709 24.7145 35.2748 24.294 34.8825C23.8735 34.4902 23.6537 34.0017 23.6344 33.4171C23.0678 33.3786 22.5944 33.1774 22.2143 32.8132C21.8341 32.4491 21.628 31.9709 21.596 31.3786C21.0037 31.3402 20.5248 31.1331 20.1595 30.7575C19.7941 30.3819 19.5986 29.9094 19.5729 29.3402C18.978 29.3017 18.487 29.086 18.0998 28.6931C17.7127 28.3001 17.5191 27.803 17.5191 27.2017C17.5191 26.9069 17.5752 26.6181 17.6873 26.3354C17.7995 26.0527 17.9627 25.8043 18.1768 25.5902L23.5921 20.1902L26.5209 23.1191C26.5799 23.1883 26.6572 23.2434 26.7527 23.2845C26.8482 23.3255 26.9517 23.346 27.0633 23.346C27.2453 23.346 27.4024 23.2857 27.5344 23.1652C27.6665 23.0447 27.7325 22.887 27.7325 22.6921C27.7325 22.5806 27.712 22.4771 27.671 22.3815C27.6299 22.286 27.5748 22.2088 27.5056 22.1498L23.9979 18.6421C23.7825 18.4165 23.5476 18.2514 23.2931 18.1469C23.0386 18.0424 22.7652 17.9902 22.4729 17.9902C22.1908 17.9902 21.9232 18.0424 21.67 18.1469C21.4168 18.2514 21.1774 18.4165 20.9517 18.6421L17.6671 21.9421C17.4851 22.1242 17.336 22.3392 17.22 22.5873C17.104 22.8354 17.0357 23.0883 17.0152 23.346C16.9947 23.5588 17.0043 23.7694 17.044 23.9777C17.0838 24.186 17.1537 24.3819 17.2537 24.5652L16.1498 25.669C15.9242 25.3434 15.7543 24.9786 15.6402 24.5748C15.5261 24.171 15.4793 23.7613 15.4998 23.346C15.5203 22.8857 15.6242 22.4412 15.8113 22.0123C15.9985 21.5835 16.2607 21.2005 16.5979 20.8633L19.8729 17.5883C20.2472 17.2242 20.6546 16.9502 21.095 16.7662C21.5354 16.5822 21.9979 16.4902 22.4825 16.4902C22.9671 16.4902 23.428 16.5822 23.8652 16.7662C24.3023 16.9502 24.703 17.2242 25.0671 17.5883L25.6402 18.1614L26.2133 17.5883C26.5876 17.2242 26.9934 16.9502 27.4306 16.7662C27.8677 16.5822 28.3286 16.4902 28.8133 16.4902C29.2979 16.4902 29.7603 16.5822 30.2007 16.7662C30.6411 16.9502 31.0434 17.2242 31.4075 17.5883L35.3824 21.5633C35.7465 21.9274 36.0254 22.3418 36.219 22.8065C36.4126 23.2713 36.5094 23.746 36.5094 24.2306C36.5094 24.7152 36.4126 25.1761 36.219 25.6133C36.0254 26.0504 35.7465 26.4511 35.3824 26.8152L27.3844 34.7979C27.1639 35.0184 26.9155 35.1857 26.6392 35.2998C26.3629 35.4139 26.0742 35.4709 25.7729 35.4709Z" fill="#F89908"/>
<defs>
<filter id="filter0_f_298_2076" x="0" y="0" width="52" height="52" filterUnits="userSpaceOnUse" color-interpolation-filters="sRGB">
<feFlood flood-opacity="0" result="BackgroundImageFix"/>
<feBlend mode="normal" in="SourceGraphic" in2="BackgroundImageFix" result="shape"/>
<feGaussianBlur stdDeviation="5" result="effect1_foregroundBlur_298_2076"/>
</filter>
</defs>
</svg>
