<svg width="32" height="32" viewBox="0 0 32 32" fill="none" xmlns="http://www.w3.org/2000/svg">
<path d="M11.0597 5.72443L1.72632 15.0578C1.47636 15.3078 1.33594 15.6469 1.33594 16.0004C1.33594 16.354 1.47636 16.6931 1.72632 16.9431L11.0597 26.2764C11.3111 26.5193 11.6479 26.6537 11.9975 26.6507C12.3471 26.6476 12.6815 26.5074 12.9287 26.2602C13.176 26.013 13.3162 25.6786 13.3192 25.329C13.3223 24.9794 13.1879 24.6426 12.945 24.3911L5.88765 17.3338H29.3357C29.6893 17.3338 30.0284 17.1933 30.2785 16.9432C30.5285 16.6932 30.669 16.3541 30.669 16.0004C30.669 15.6468 30.5285 15.3077 30.2785 15.0576C30.0284 14.8076 29.6893 14.6671 29.3357 14.6671H5.88765L12.945 7.60977C13.0723 7.48677 13.1739 7.33964 13.2438 7.17697C13.3137 7.0143 13.3504 6.83934 13.352 6.6623C13.3535 6.48526 13.3198 6.30969 13.2527 6.14583C13.1857 5.98197 13.0867 5.8331 12.9615 5.70791C12.8363 5.58272 12.6875 5.48371 12.5236 5.41667C12.3597 5.34963 12.1842 5.31589 12.0071 5.31743C11.8301 5.31897 11.6551 5.35575 11.4924 5.42563C11.3298 5.49551 11.1826 5.59709 11.0597 5.72443Z" fill="white"/>
</svg>
