<svg width="43" height="41" viewBox="0 0 43 41" fill="none" xmlns="http://www.w3.org/2000/svg">
<g filter="url(#filter0_dd_1693_11265)">
<rect x="4.5" y="4.5" width="32" height="32" rx="16" fill="black"/>
<g clip-path="url(#clip0_1693_11265)">
<path d="M26.5 19.5H14.5C14.2348 19.5 13.9804 19.6054 13.7929 19.7929C13.6054 19.9804 13.5 20.2348 13.5 20.5V27.5C13.5 27.7652 13.6054 28.0196 13.7929 28.2071C13.9804 28.3946 14.2348 28.5 14.5 28.5H26.5C26.7652 28.5 27.0196 28.3946 27.2071 28.2071C27.3946 28.0196 27.5 27.7652 27.5 27.5V20.5C27.5 20.2348 27.3946 19.9804 27.2071 19.7929C27.0196 19.6054 26.7652 19.5 26.5 19.5ZM20.5 25.5C20.2033 25.5 19.9133 25.412 19.6666 25.2472C19.42 25.0824 19.2277 24.8481 19.1142 24.574C19.0006 24.2999 18.9709 23.9983 19.0288 23.7074C19.0867 23.4164 19.2296 23.1491 19.4393 22.9393C19.6491 22.7296 19.9164 22.5867 20.2074 22.5288C20.4983 22.4709 20.7999 22.5006 21.074 22.6142C21.3481 22.7277 21.5824 22.92 21.7472 23.1666C21.912 23.4133 22 23.7033 22 24C22 24.3978 21.842 24.7794 21.5607 25.0607C21.2794 25.342 20.8978 25.5 20.5 25.5Z" fill="white"/>
<path d="M18.5 18.4999V16.4999C18.4997 16.0279 18.6663 15.571 18.9704 15.21C19.2745 14.849 19.6965 14.6071 20.1617 14.5273C20.6269 14.4474 21.1053 14.5347 21.5124 14.7736C21.9195 15.0126 22.2289 15.3878 22.386 15.8329C22.4297 15.9567 22.4974 16.0707 22.5852 16.1684C22.673 16.2661 22.7792 16.3455 22.8977 16.4022C23.0162 16.4588 23.1446 16.4915 23.2758 16.4985C23.4069 16.5055 23.5382 16.4866 23.662 16.4429C23.7858 16.3992 23.8998 16.3315 23.9975 16.2437C24.0952 16.1559 24.1746 16.0497 24.2313 15.9312C24.2879 15.8127 24.3207 15.6842 24.3277 15.5531C24.3346 15.422 24.3157 15.2907 24.272 15.1669C23.9579 14.2768 23.3391 13.5264 22.525 13.0485C21.711 12.5706 20.7542 12.3961 19.8238 12.5556C18.8935 12.7152 18.0495 13.1986 17.4412 13.9205C16.833 14.6423 16.4996 15.5559 16.5 16.4999V18.4999H18.5Z" fill="white"/>
</g>
</g>
<defs>
<filter id="filter0_dd_1693_11265" x="-1.5" y="-1.5" width="44" height="44" filterUnits="userSpaceOnUse" color-interpolation-filters="sRGB">
<feFlood flood-opacity="0" result="BackgroundImageFix"/>
<feColorMatrix in="SourceAlpha" type="matrix" values="0 0 0 0 0 0 0 0 0 0 0 0 0 0 0 0 0 0 127 0" result="hardAlpha"/>
<feOffset dy="2"/>
<feGaussianBlur stdDeviation="2"/>
<feColorMatrix type="matrix" values="0 0 0 0 0 0 0 0 0 0 0 0 0 0 0 0 0 0 0.08 0"/>
<feBlend mode="normal" in2="BackgroundImageFix" result="effect1_dropShadow_1693_11265"/>
<feColorMatrix in="SourceAlpha" type="matrix" values="0 0 0 0 0 0 0 0 0 0 0 0 0 0 0 0 0 0 127 0" result="hardAlpha"/>
<feOffset/>
<feGaussianBlur stdDeviation="3"/>
<feColorMatrix type="matrix" values="0 0 0 0 0 0 0 0 0 0 0 0 0 0 0 0 0 0 0.02 0"/>
<feBlend mode="normal" in2="effect1_dropShadow_1693_11265" result="effect2_dropShadow_1693_11265"/>
<feBlend mode="normal" in="SourceGraphic" in2="effect2_dropShadow_1693_11265" result="shape"/>
</filter>
<clipPath id="clip0_1693_11265">
<rect width="16" height="16" fill="white" transform="translate(12.5 12.5)"/>
</clipPath>
</defs>
</svg>
