<svg width="167" height="44" viewBox="0 0 167 44" fill="none" xmlns="http://www.w3.org/2000/svg">
<g clip-path="url(#clip0_107_605)">
<path d="M47.9564 28.9845H50.7471V21.7983H56.3205V19.0036H50.7471V15.7538H57.4184V12.9631H47.9564V28.9845Z" fill="white"/>
<path d="M63.882 17.2191C63.2552 17.2191 62.6723 17.3389 62.1333 17.5784C61.5904 17.8179 61.1273 18.1453 60.736 18.5565L60.724 17.5385H57.9333L57.9453 28.9806H60.736V22.481C60.736 22.0299 60.8438 21.6227 61.0634 21.2514C61.283 20.8801 61.5744 20.5886 61.9457 20.3691C62.317 20.1535 62.7242 20.0417 63.1753 20.0417C63.4668 20.0417 63.7542 20.0976 64.0457 20.2134L65.1436 17.3987C64.7244 17.275 64.3052 17.2151 63.886 17.2151L63.882 17.2191Z" fill="white"/>
<path d="M74.0666 19.0036C73.6474 18.4846 73.1364 18.0574 72.5375 17.722C71.9387 17.3867 71.26 17.219 70.5054 17.219C69.691 17.219 68.9244 17.3707 68.2178 17.6781C67.5071 17.9815 66.8843 18.4087 66.3414 18.9477C65.7984 19.4907 65.3792 20.1175 65.0758 20.8361C64.7763 21.5547 64.6246 22.3213 64.6246 23.1357C64.6246 23.9501 64.7843 24.7766 65.0997 25.5152C65.4151 26.2537 65.8543 26.9085 66.4172 27.4714C66.9801 28.0343 67.6269 28.4775 68.3695 28.7969C69.1081 29.1163 69.9026 29.276 70.7489 29.276C71.4516 29.276 72.0584 29.1163 72.5735 28.8009C73.0885 28.4855 73.5037 28.0703 73.8151 27.5593L73.9428 28.9765H76.7335V17.5344H73.9428L74.0706 18.9996L74.0666 19.0036ZM73.336 24.9363C73.0765 25.4433 72.7172 25.8465 72.2621 26.142C71.8069 26.4374 71.2799 26.5891 70.6811 26.5891C70.0822 26.5891 69.5672 26.4414 69.0841 26.142C68.601 25.8425 68.2138 25.4433 67.9223 24.9403C67.6309 24.4372 67.4872 23.8743 67.4872 23.2595C67.4872 22.6446 67.6309 22.0817 67.9144 21.5787C68.2018 21.0756 68.5851 20.6724 69.0682 20.373C69.5512 20.0735 70.0902 19.9218 70.6771 19.9218C71.264 19.9218 71.787 20.0696 72.2501 20.369C72.7132 20.6684 73.0725 21.0676 73.332 21.5747C73.5915 22.0817 73.7193 22.6446 73.7193 23.2635C73.7193 23.8823 73.5875 24.4332 73.332 24.9403L73.336 24.9363Z" fill="white"/>
<path d="M94.248 17.834C93.5653 17.4268 92.8028 17.2231 91.9644 17.2231C91.1699 17.2231 90.4433 17.4108 89.7806 17.7821C89.1178 18.1574 88.5828 18.6564 88.1796 19.2792C87.7844 18.6524 87.2494 18.1534 86.5827 17.7821C85.9159 17.4068 85.1853 17.2231 84.3909 17.2231C83.7641 17.2231 83.1812 17.3429 82.6382 17.5825C82.0952 17.822 81.6321 18.1494 81.2409 18.5606V17.5425H78.4502V28.9847H81.2409V22.4971C81.2409 22.0539 81.3487 21.6467 81.5682 21.2794C81.7878 20.9121 82.0793 20.6127 82.4426 20.3851C82.8099 20.1615 83.2131 20.0458 83.6563 20.0458C84.0994 20.0458 84.5146 20.1536 84.8819 20.3731C85.2492 20.5887 85.5367 20.8842 85.7523 21.2475C85.9678 21.6108 86.0716 22.03 86.0716 22.4931V28.9807H88.8623V22.4931C88.8623 22.026 88.9741 21.6108 89.1937 21.2475C89.4133 20.8802 89.7087 20.5887 90.068 20.3731C90.4313 20.1575 90.8345 20.0458 91.2857 20.0458C91.7368 20.0458 92.1401 20.1575 92.5034 20.3851C92.8667 20.6127 93.1541 20.9081 93.3737 21.2794C93.5893 21.6507 93.7011 22.0539 93.7011 22.4971V28.9847H96.4918V21.7545C96.4918 20.9161 96.2881 20.1536 95.8809 19.4709C95.4737 18.7882 94.9267 18.2412 94.244 17.834H94.248Z" fill="white"/>
<path d="M107.367 19.335C106.848 18.6802 106.217 18.1612 105.475 17.7859C104.732 17.4066 103.914 17.219 103.019 17.219C102.233 17.219 101.494 17.3747 100.8 17.6901C100.105 18.0015 99.498 18.4367 98.975 18.9876C98.452 19.5386 98.0408 20.1813 97.7454 20.908C97.4459 21.6386 97.2982 22.4171 97.2982 23.2475C97.2982 24.3534 97.5537 25.3634 98.0687 26.2777C98.5838 27.192 99.2744 27.9226 100.141 28.4615C101.007 29.0045 101.965 29.276 103.019 29.276C104.165 29.276 105.195 28.9526 106.121 28.3098C107.044 27.667 107.738 26.8366 108.205 25.8226L105.355 25.1598C105.087 25.571 104.756 25.8984 104.353 26.138C103.954 26.3775 103.506 26.4933 103.019 26.4853C102.544 26.4773 102.121 26.3735 101.75 26.1699C101.374 25.9663 101.067 25.6988 100.823 25.3555C100.58 25.0161 100.404 24.6328 100.296 24.2057H108.661C108.788 23.2914 108.736 22.4131 108.501 21.5747C108.265 20.7363 107.886 19.9897 107.367 19.331V19.335ZM100.205 22.1136C100.304 21.6465 100.488 21.2313 100.76 20.86C101.031 20.4888 101.358 20.1973 101.75 19.9777C102.141 19.7581 102.564 19.6504 103.019 19.6504C103.474 19.6504 103.906 19.7621 104.301 19.9817C104.696 20.2013 105.031 20.4967 105.303 20.868C105.574 21.2393 105.75 21.6505 105.834 22.1097H100.205V22.1136Z" fill="white"/>
<path d="M114.446 15.7499C114.929 15.5702 115.444 15.4864 115.983 15.4944C116.526 15.4944 117.033 15.5702 117.504 15.718C117.975 15.8657 118.378 16.0653 118.705 16.3168C119.033 16.5683 119.252 16.8478 119.356 17.1512L121.987 16.201C121.72 15.4624 121.28 14.8277 120.666 14.3007C120.051 13.7737 119.336 13.3744 118.522 13.099C117.707 12.8235 116.857 12.6877 115.983 12.6877C114.929 12.6877 113.95 12.8914 113.04 13.2946C112.134 13.6978 111.399 14.2647 110.844 14.9874C110.289 15.71 110.01 16.5604 110.01 17.5265C110.01 18.5565 110.27 19.3949 110.793 20.0417C111.316 20.6885 112.026 21.1955 112.924 21.5628C113.823 21.9301 114.845 22.1976 115.979 22.3733C116.498 22.4571 117.001 22.5809 117.488 22.7406C117.975 22.9002 118.378 23.1158 118.689 23.3873C119.001 23.6588 119.157 24.0021 119.157 24.4213C119.157 24.8405 119.009 25.1919 118.709 25.5033C118.41 25.8147 118.023 26.0542 117.536 26.2259C117.053 26.3976 116.53 26.4814 115.975 26.4814C115.42 26.4814 114.925 26.4056 114.454 26.2538C113.982 26.1021 113.579 25.8985 113.252 25.647C112.924 25.3955 112.705 25.116 112.601 24.8126L109.982 25.7748C110.25 26.5054 110.689 27.1362 111.3 27.6552C111.91 28.1782 112.621 28.5774 113.431 28.8569C114.246 29.1363 115.092 29.2761 115.979 29.2761C117.045 29.2761 118.035 29.0725 118.941 28.6692C119.847 28.266 120.578 27.6991 121.125 26.9685C121.676 26.2419 121.947 25.3915 121.947 24.4213C121.947 23.4512 121.672 22.6607 121.125 22.002C120.574 21.3432 119.847 20.8122 118.941 20.417C118.035 20.0217 117.045 19.7383 115.979 19.5706C115.392 19.4708 114.857 19.363 114.378 19.2432C113.899 19.1235 113.515 18.9358 113.228 18.6763C112.94 18.4168 112.801 18.0335 112.801 17.5225C112.801 17.1273 112.952 16.7759 113.26 16.4685C113.567 16.1611 113.958 15.9216 114.446 15.7419V15.7499Z" fill="white"/>
<path d="M138.22 17.5386L135.737 24.9444L133.266 17.5386H130.507L128.036 24.9444L125.552 17.5386H122.818L126.638 28.9847H129.409L131.88 21.5469L134.363 28.9847H137.13L140.955 17.5386H138.22Z" fill="white"/>
<path d="M150.381 19.0036C149.962 18.4846 149.451 18.0574 148.852 17.722C148.253 17.3867 147.574 17.219 146.82 17.219C146.005 17.219 145.239 17.3707 144.532 17.6781C143.821 17.9815 143.199 18.4087 142.656 18.9477C142.113 19.4867 141.694 20.1175 141.39 20.8361C141.091 21.5547 140.939 22.3213 140.939 23.1357C140.939 23.9501 141.099 24.7766 141.414 25.5152C141.729 26.2537 142.169 26.9085 142.732 27.4714C143.294 28.0343 143.941 28.4775 144.684 28.7969C145.422 29.1163 146.217 29.276 147.063 29.276C147.766 29.276 148.373 29.1163 148.888 28.8009C149.403 28.4855 149.818 28.0703 150.129 27.5593L150.257 28.9765H153.048V17.5344H150.257L150.385 18.9996L150.381 19.0036ZM149.65 24.9363C149.391 25.4433 149.032 25.8465 148.576 26.142C148.121 26.4374 147.594 26.5891 146.995 26.5891C146.397 26.5891 145.882 26.4414 145.398 26.142C144.915 25.8425 144.528 25.4433 144.237 24.9403C143.945 24.4372 143.802 23.8743 143.802 23.2595C143.802 22.6446 143.945 22.0817 144.233 21.5787C144.52 21.0756 144.903 20.6724 145.386 20.373C145.87 20.0735 146.405 19.9218 146.995 19.9218C147.586 19.9218 148.105 20.0696 148.568 20.369C149.032 20.6684 149.391 21.0676 149.65 21.5747C149.91 22.0817 150.038 22.6446 150.038 23.2635C150.038 23.8823 149.906 24.4332 149.65 24.9403V24.9363Z" fill="white"/>
<path d="M166.522 20.928C166.215 20.2054 165.783 19.5626 165.228 19.0117C164.674 18.4608 164.035 18.0256 163.312 17.7142C162.586 17.4028 161.807 17.2471 160.965 17.2471C160.234 17.2471 159.591 17.4108 159.048 17.7341C158.501 18.0575 158.042 18.4807 157.671 18.9997V17.5465H154.88V34.7097H157.671V27.5594C158.046 28.0784 158.505 28.4976 159.048 28.825C159.595 29.1483 160.234 29.312 160.965 29.312C161.803 29.312 162.586 29.1563 163.312 28.8409C164.035 28.5295 164.678 28.0944 165.228 27.5434C165.779 26.9925 166.211 26.3497 166.522 25.6151C166.829 24.8845 166.985 24.102 166.985 23.2676C166.985 22.4332 166.829 21.6586 166.522 20.932V20.928ZM163.711 24.9484C163.42 25.4554 163.033 25.8586 162.546 26.1541C162.059 26.4535 161.52 26.6012 160.933 26.6012C160.346 26.6012 159.835 26.4495 159.376 26.1501C158.917 25.8506 158.561 25.4434 158.302 24.9364C158.042 24.4294 157.914 23.8704 157.914 23.2596C157.914 22.6488 158.042 22.0938 158.302 21.5908C158.561 21.0877 158.921 20.6845 159.376 20.3851C159.831 20.0857 160.354 19.9339 160.933 19.9339C161.512 19.9339 162.067 20.0857 162.554 20.3851C163.041 20.6845 163.424 21.0877 163.715 21.5908C164.007 22.0938 164.151 22.6527 164.151 23.2596C164.151 23.8664 164.007 24.4413 163.715 24.9484H163.711Z" fill="white"/>
<path d="M37.8158 0.451203V43.5529C37.8158 43.9202 37.3966 44.1318 37.1012 43.9122L30.382 38.9018C30.2702 38.818 30.2023 38.6862 30.2023 38.5425V4.83883C30.2023 4.68712 30.2782 4.54738 30.406 4.46354L37.1251 0.075919C37.4246 -0.119707 37.8158 0.0958809 37.8158 0.451203ZM28.3139 0.243599L22.9282 4.76297C22.8284 4.84681 22.7685 4.97457 22.7685 5.10632V38.814C22.7685 38.9457 22.8244 39.0695 22.9242 39.1533L28.31 43.8044C28.6014 44.056 29.0485 43.8484 29.0485 43.4651V0.586943C29.0485 0.207668 28.6054 6.38552e-05 28.3139 0.243599ZM20.6446 0.519073L16.1172 5.68521C16.0454 5.76506 16.0054 5.87285 16.0054 5.98065V38.0913C16.0054 38.1991 16.0454 38.3069 16.1172 38.3868L20.6446 43.5529C20.9161 43.8643 21.4271 43.6727 21.4271 43.2575V0.814509C21.4271 0.399302 20.9161 0.207667 20.6446 0.519073ZM13.7178 1.3415L10.0448 8.75934C10.0129 8.81923 9.99691 8.89109 9.99691 8.95896V34.8136C9.99691 34.8815 10.0129 34.9454 10.0408 35.0052L13.7138 42.6666C13.9214 43.0978 14.5642 42.9501 14.5642 42.475V1.54112C14.5642 1.06603 13.9254 0.918311 13.7138 1.3415H13.7178ZM7.02259 2.36754L4.68306 9.70154C4.66709 9.74546 4.6631 9.79337 4.6631 9.83728V34.2387C4.6631 34.2866 4.67108 34.3305 4.68306 34.3744L7.02259 41.7084C7.1783 42.1955 7.89692 42.0837 7.89692 41.5727V2.50328C7.89692 1.99226 7.1783 1.88047 7.02259 2.36754ZM1.01406 6.03654L0 13.2827C0 13.3067 0 13.3266 0 13.3466V30.2783L1.00608 37.7959C1.08193 38.3508 1.89638 38.295 1.89638 37.736V6.09643C1.89638 5.53749 1.08193 5.4816 1.00608 6.03654H1.01406Z" fill="url(#paint0_linear_107_605)"/>
</g>
<defs>
<linearGradient id="paint0_linear_107_605" x1="-11.2146" y1="21.9981" x2="38.5424" y2="21.9981" gradientUnits="userSpaceOnUse">
<stop stop-color="#0FDB57"/>
<stop offset="0.5" stop-color="#F5E530"/>
<stop offset="1" stop-color="#FF591F"/>
</linearGradient>
<clipPath id="clip0_107_605">
<rect width="166.985" height="44" fill="white"/>
</clipPath>
</defs>
</svg>
