<svg width="167" height="44" viewBox="0 0 167 44" fill="none" xmlns="http://www.w3.org/2000/svg">
<g clip-path="url(#clip0_107_460)">
<path d="M47.9564 28.9847H50.7471V21.7984H56.3205V19.0037H50.7471V15.7539H57.4184V12.9633H47.9564V28.9847Z" fill="black"/>
<path d="M63.882 17.2191C63.2552 17.2191 62.6723 17.3389 62.1333 17.5784C61.5904 17.818 61.1273 18.1454 60.736 18.5566L60.724 17.5385H57.9333L57.9453 28.9807H60.736V22.4811C60.736 22.0299 60.8438 21.6227 61.0634 21.2514C61.283 20.8801 61.5744 20.5887 61.9457 20.3691C62.317 20.1535 62.7242 20.0417 63.1753 20.0417C63.4668 20.0417 63.7542 20.0976 64.0457 20.2134L65.1436 17.3988C64.7244 17.275 64.3052 17.2151 63.886 17.2151L63.882 17.2191Z" fill="black"/>
<path d="M74.0666 19.0037C73.6474 18.4847 73.1364 18.0575 72.5375 17.7222C71.9387 17.3868 71.26 17.2191 70.5054 17.2191C69.691 17.2191 68.9244 17.3708 68.2178 17.6783C67.5071 17.9817 66.8843 18.4089 66.3414 18.9478C65.7984 19.4908 65.3792 20.1176 65.0758 20.8362C64.7763 21.5548 64.6246 22.3214 64.6246 23.1358C64.6246 23.9503 64.7843 24.7767 65.0997 25.5153C65.4151 26.2539 65.8543 26.9086 66.4172 27.4716C66.9801 28.0345 67.6269 28.4776 68.3695 28.797C69.1081 29.1164 69.9026 29.2761 70.7489 29.2761C71.4516 29.2761 72.0584 29.1164 72.5735 28.801C73.0885 28.4856 73.5037 28.0704 73.8151 27.5594L73.9428 28.9767H76.7335V17.5345H73.9428L74.0706 18.9997L74.0666 19.0037ZM73.336 24.9364C73.0765 25.4434 72.7172 25.8467 72.2621 26.1421C71.8069 26.4375 71.2799 26.5892 70.6811 26.5892C70.0822 26.5892 69.5672 26.4415 69.0841 26.1421C68.601 25.8427 68.2138 25.4434 67.9223 24.9404C67.6309 24.4373 67.4872 23.8744 67.4872 23.2596C67.4872 22.6448 67.6309 22.0818 67.9144 21.5788C68.2018 21.0758 68.5851 20.6725 69.0682 20.3731C69.5512 20.0737 70.0902 19.922 70.6771 19.922C71.264 19.922 71.787 20.0697 72.2501 20.3691C72.7132 20.6685 73.0725 21.0678 73.332 21.5748C73.5915 22.0818 73.7193 22.6448 73.7193 23.2636C73.7193 23.8824 73.5875 24.4334 73.332 24.9404L73.336 24.9364Z" fill="black"/>
<path d="M94.248 17.834C93.5653 17.4267 92.8028 17.2231 91.9644 17.2231C91.1699 17.2231 90.4433 17.4108 89.7806 17.7821C89.1178 18.1573 88.5828 18.6564 88.1796 19.2792C87.7844 18.6524 87.2494 18.1533 86.5827 17.7821C85.9159 17.4068 85.1853 17.2231 84.3909 17.2231C83.7641 17.2231 83.1812 17.3429 82.6382 17.5824C82.0952 17.822 81.6321 18.1494 81.2409 18.5606V17.5425H78.4502V28.9847H81.2409V22.4971C81.2409 22.0539 81.3487 21.6467 81.5682 21.2794C81.7878 20.9121 82.0793 20.6126 82.4426 20.3851C82.8099 20.1615 83.2131 20.0457 83.6563 20.0457C84.0994 20.0457 84.5146 20.1535 84.8819 20.3731C85.2492 20.5887 85.5367 20.8841 85.7523 21.2474C85.9678 21.6107 86.0716 22.0299 86.0716 22.4931V28.9807H88.8623V22.4931C88.8623 22.026 88.9741 21.6107 89.1937 21.2474C89.4133 20.8801 89.7087 20.5887 90.068 20.3731C90.4313 20.1575 90.8345 20.0457 91.2857 20.0457C91.7368 20.0457 92.1401 20.1575 92.5034 20.3851C92.8667 20.6126 93.1541 20.9081 93.3737 21.2794C93.5893 21.6507 93.7011 22.0539 93.7011 22.4971V28.9847H96.4918V21.7545C96.4918 20.9161 96.2881 20.1535 95.8809 19.4708C95.4737 18.7881 94.9267 18.2412 94.244 17.834H94.248Z" fill="black"/>
<path d="M107.367 19.3351C106.848 18.6803 106.217 18.1613 105.475 17.786C104.732 17.4068 103.914 17.2191 103.019 17.2191C102.233 17.2191 101.494 17.3748 100.8 17.6902C100.105 18.0016 99.498 18.4368 98.975 18.9878C98.452 19.5387 98.0408 20.1815 97.7454 20.9081C97.4459 21.6387 97.2982 22.4172 97.2982 23.2476C97.2982 24.3535 97.5537 25.3636 98.0687 26.2778C98.5838 27.1921 99.2744 27.9227 100.141 28.4617C101.007 29.0046 101.965 29.2761 103.019 29.2761C104.165 29.2761 105.195 28.9527 106.121 28.31C107.044 27.6672 107.738 26.8368 108.205 25.8227L105.355 25.16C105.087 25.5712 104.756 25.8986 104.353 26.1381C103.954 26.3776 103.506 26.4934 103.019 26.4854C102.544 26.4775 102.121 26.3737 101.75 26.17C101.374 25.9664 101.067 25.6989 100.823 25.3556C100.58 25.0162 100.404 24.633 100.296 24.2058H108.661C108.788 23.2915 108.736 22.4132 108.501 21.5748C108.265 20.7364 107.886 19.9898 107.367 19.3311V19.3351ZM100.205 22.1138C100.304 21.6467 100.488 21.2315 100.76 20.8602C101.031 20.4889 101.358 20.1974 101.75 19.9779C102.141 19.7583 102.564 19.6505 103.019 19.6505C103.474 19.6505 103.906 19.7623 104.301 19.9819C104.696 20.2014 105.031 20.4969 105.303 20.8682C105.574 21.2395 105.75 21.6507 105.834 22.1098H100.205V22.1138Z" fill="black"/>
<path d="M114.446 15.7499C114.929 15.5703 115.444 15.4864 115.983 15.4944C116.526 15.4944 117.033 15.5703 117.504 15.718C117.975 15.8657 118.378 16.0653 118.705 16.3168C119.033 16.5684 119.252 16.8478 119.356 17.1513L121.987 16.2011C121.72 15.4625 121.28 14.8277 120.666 14.3007C120.051 13.7737 119.336 13.3745 118.522 13.099C117.707 12.8235 116.857 12.6878 115.983 12.6878C114.929 12.6878 113.95 12.8914 113.04 13.2946C112.134 13.6978 111.399 14.2648 110.844 14.9874C110.289 15.71 110.01 16.5604 110.01 17.5265C110.01 18.5566 110.27 19.395 110.793 20.0417C111.316 20.6885 112.026 21.1955 112.924 21.5628C113.823 21.9301 114.845 22.1976 115.979 22.3733C116.498 22.4571 117.001 22.5809 117.488 22.7406C117.975 22.9003 118.378 23.1159 118.689 23.3874C119.001 23.6588 119.157 24.0022 119.157 24.4214C119.157 24.8406 119.009 25.1919 118.709 25.5033C118.41 25.8147 118.023 26.0543 117.536 26.2259C117.053 26.3976 116.53 26.4814 115.975 26.4814C115.42 26.4814 114.925 26.4056 114.454 26.2539C113.982 26.1022 113.579 25.8986 113.252 25.647C112.924 25.3955 112.705 25.1161 112.601 24.8126L109.982 25.7748C110.25 26.5054 110.689 27.1362 111.3 27.6552C111.91 28.1782 112.621 28.5774 113.431 28.8569C114.246 29.1364 115.092 29.2761 115.979 29.2761C117.045 29.2761 118.035 29.0725 118.941 28.6693C119.847 28.266 120.578 27.6991 121.125 26.9685C121.676 26.2419 121.947 25.3915 121.947 24.4214C121.947 23.4512 121.672 22.6607 121.125 22.002C120.574 21.3433 119.847 20.8123 118.941 20.417C118.035 20.0218 117.045 19.7383 115.979 19.5706C115.392 19.4708 114.857 19.363 114.378 19.2433C113.899 19.1235 113.515 18.9359 113.228 18.6763C112.94 18.4168 112.801 18.0336 112.801 17.5225C112.801 17.1273 112.952 16.776 113.26 16.4686C113.567 16.1611 113.958 15.9216 114.446 15.7419V15.7499Z" fill="black"/>
<path d="M138.22 17.5385L135.737 24.9444L133.266 17.5385H130.507L128.036 24.9444L125.552 17.5385H122.818L126.638 28.9847H129.409L131.88 21.5469L134.363 28.9847H137.13L140.955 17.5385H138.22Z" fill="black"/>
<path d="M150.381 19.0037C149.962 18.4847 149.451 18.0575 148.852 17.7222C148.253 17.3868 147.574 17.2191 146.82 17.2191C146.005 17.2191 145.239 17.3708 144.532 17.6783C143.821 17.9817 143.199 18.4089 142.656 18.9478C142.113 19.4868 141.694 20.1176 141.39 20.8362C141.091 21.5548 140.939 22.3214 140.939 23.1358C140.939 23.9503 141.099 24.7767 141.414 25.5153C141.729 26.2539 142.169 26.9086 142.732 27.4716C143.294 28.0345 143.941 28.4776 144.684 28.797C145.422 29.1164 146.217 29.2761 147.063 29.2761C147.766 29.2761 148.373 29.1164 148.888 28.801C149.403 28.4856 149.818 28.0704 150.129 27.5594L150.257 28.9767H153.048V17.5345H150.257L150.385 18.9997L150.381 19.0037ZM149.65 24.9364C149.391 25.4434 149.032 25.8467 148.576 26.1421C148.121 26.4375 147.594 26.5892 146.995 26.5892C146.397 26.5892 145.882 26.4415 145.398 26.1421C144.915 25.8427 144.528 25.4434 144.237 24.9404C143.945 24.4373 143.802 23.8744 143.802 23.2596C143.802 22.6448 143.945 22.0818 144.233 21.5788C144.52 21.0758 144.903 20.6725 145.386 20.3731C145.87 20.0737 146.405 19.922 146.995 19.922C147.586 19.922 148.105 20.0697 148.568 20.3691C149.032 20.6685 149.391 21.0678 149.65 21.5748C149.91 22.0818 150.038 22.6448 150.038 23.2636C150.038 23.8824 149.906 24.4334 149.65 24.9404V24.9364Z" fill="black"/>
<path d="M166.522 20.928C166.215 20.2054 165.783 19.5627 165.228 19.0117C164.674 18.4608 164.035 18.0256 163.312 17.7142C162.586 17.4028 161.807 17.2471 160.965 17.2471C160.234 17.2471 159.591 17.4108 159.048 17.7341C158.501 18.0575 158.042 18.4807 157.671 18.9997V17.5465H154.88V34.7097H157.671V27.5594C158.046 28.0784 158.505 28.4976 159.048 28.825C159.595 29.1484 160.234 29.312 160.965 29.312C161.803 29.312 162.586 29.1563 163.312 28.8409C164.035 28.5295 164.678 28.0944 165.228 27.5434C165.779 26.9925 166.211 26.3497 166.522 25.6151C166.829 24.8845 166.985 24.102 166.985 23.2676C166.985 22.4332 166.829 21.6587 166.522 20.932V20.928ZM163.711 24.9484C163.42 25.4554 163.033 25.8586 162.546 26.1541C162.059 26.4535 161.52 26.6012 160.933 26.6012C160.346 26.6012 159.835 26.4495 159.376 26.1501C158.917 25.8506 158.561 25.4434 158.302 24.9364C158.042 24.4294 157.914 23.8704 157.914 23.2596C157.914 22.6488 158.042 22.0938 158.302 21.5908C158.561 21.0877 158.921 20.6845 159.376 20.3851C159.831 20.0857 160.354 19.9339 160.933 19.9339C161.512 19.9339 162.067 20.0857 162.554 20.3851C163.041 20.6845 163.424 21.0877 163.715 21.5908C164.007 22.0938 164.151 22.6528 164.151 23.2596C164.151 23.8664 164.007 24.4413 163.715 24.9484H163.711Z" fill="black"/>
<path d="M37.8158 0.451138V43.5529C37.8158 43.9202 37.3966 44.1317 37.1012 43.9122L30.382 38.9017C30.2702 38.8179 30.2023 38.6861 30.2023 38.5424V4.83876C30.2023 4.68705 30.2782 4.54732 30.406 4.46348L37.1251 0.0758542C37.4246 -0.119772 37.8158 0.0958161 37.8158 0.451138ZM28.3139 0.243534L22.9282 4.76291C22.8284 4.84675 22.7685 4.9745 22.7685 5.10625V38.8139C22.7685 38.9456 22.8244 39.0694 22.9242 39.1533L28.31 43.8044C28.6014 44.0559 29.0485 43.8483 29.0485 43.465V0.586879C29.0485 0.207603 28.6054 -9.94653e-07 28.3139 0.243534ZM20.6446 0.519008L16.1172 5.68515C16.0454 5.76499 16.0054 5.87279 16.0054 5.98058V38.0913C16.0054 38.1991 16.0454 38.3069 16.1172 38.3867L20.6446 43.5529C20.9161 43.8643 21.4271 43.6726 21.4271 43.2574V0.814444C21.4271 0.399237 20.9161 0.207603 20.6446 0.519008ZM13.7178 1.34144L10.0448 8.75928C10.0129 8.81916 9.99691 8.89103 9.99691 8.9589V34.8135C9.99691 34.8814 10.0129 34.9453 10.0408 35.0052L13.7138 42.6665C13.9214 43.0977 14.5642 42.95 14.5642 42.4749V1.54106C14.5642 1.06596 13.9254 0.918246 13.7138 1.34144H13.7178ZM7.02259 2.36748L4.68306 9.70148C4.66709 9.74539 4.6631 9.7933 4.6631 9.83722V34.2386C4.6631 34.2865 4.67108 34.3305 4.68306 34.3744L7.02259 41.7084C7.1783 42.1954 7.89692 42.0837 7.89692 41.5726V2.50322C7.89692 1.9922 7.1783 1.88041 7.02259 2.36748ZM1.01406 6.03647L0 13.2826C0 13.3066 0 13.3266 0 13.3465V30.2782L1.00608 37.7958C1.08193 38.3508 1.89638 38.2949 1.89638 37.736V6.09636C1.89638 5.53743 1.08193 5.48153 1.00608 6.03647H1.01406Z" fill="url(#paint0_linear_107_460)"/>
</g>
<defs>
<linearGradient id="paint0_linear_107_460" x1="-11.2146" y1="21.998" x2="38.5424" y2="21.998" gradientUnits="userSpaceOnUse">
<stop stop-color="#0FDB57"/>
<stop offset="0.5" stop-color="#F5E530"/>
<stop offset="1" stop-color="#FF591F"/>
</linearGradient>
<clipPath id="clip0_107_460">
<rect width="166.985" height="44" fill="white"/>
</clipPath>
</defs>
</svg>
