<svg width="32" height="32" viewBox="0 0 32 32" fill="none" xmlns="http://www.w3.org/2000/svg">
<path d="M20.9403 5.72443L30.2737 15.0578C30.5236 15.3078 30.6641 15.6469 30.6641 16.0004C30.6641 16.354 30.5236 16.6931 30.2737 16.9431L20.9403 26.2764C20.6889 26.5193 20.3521 26.6537 20.0025 26.6507C19.6529 26.6476 19.3185 26.5074 19.0713 26.2602C18.824 26.013 18.6838 25.6786 18.6808 25.329C18.6777 24.9794 18.8121 24.6426 19.055 24.3911L26.1123 17.3338H2.66435C2.31073 17.3338 1.97159 17.1933 1.72154 16.9432C1.47149 16.6932 1.33102 16.3541 1.33102 16.0004C1.33102 15.6468 1.47149 15.3077 1.72154 15.0576C1.97159 14.8076 2.31073 14.6671 2.66435 14.6671H26.1123L19.055 7.60977C18.9277 7.48677 18.8261 7.33964 18.7562 7.17697C18.6863 7.0143 18.6496 6.83934 18.648 6.6623C18.6465 6.48526 18.6802 6.30969 18.7473 6.14583C18.8143 5.98197 18.9133 5.8331 19.0385 5.70791C19.1637 5.58272 19.3125 5.48371 19.4764 5.41667C19.6403 5.34963 19.8158 5.31589 19.9929 5.31743C20.1699 5.31897 20.3449 5.35575 20.5076 5.42563C20.6702 5.49551 20.8174 5.59709 20.9403 5.72443Z" fill="black"/>
</svg>
