<svg width="1211" height="122" viewBox="0 0 1211 122" fill="none" xmlns="http://www.w3.org/2000/svg">
<g opacity="0.4" clip-path="url(#clip0_286_2018)">
<path d="M64.1699 13.3474C64.1699 14.7167 63.0668 15.8198 61.6974 15.8198C60.3281 15.8198 59.225 14.7167 59.225 13.3474C59.225 11.978 60.29 10.8749 61.6974 10.8749C63.1048 10.9129 64.1699 12.016 64.1699 13.3474ZM53.9757 18.3303C53.9757 18.5586 53.9757 18.9389 53.9757 18.9389C53.9757 18.9389 52.7965 17.4174 50.286 17.4174C46.1399 17.4174 42.9066 20.5746 42.9066 24.949C42.9066 29.2853 46.1018 32.4805 50.286 32.4805C52.8346 32.4805 53.9757 30.9209 53.9757 30.9209V31.5676C53.9757 31.8719 54.2039 32.1001 54.5082 32.1001H57.5893V17.7978C57.5893 17.7978 54.7745 17.7978 54.5082 17.7978C54.2039 17.7978 53.9757 18.0641 53.9757 18.3303ZM53.9757 27.4975C53.4051 28.3343 52.264 29.0571 50.8946 29.0571C48.4602 29.0571 46.5963 27.5355 46.5963 24.949C46.5963 22.3624 48.4602 20.8408 50.8946 20.8408C52.226 20.8408 53.4432 21.6016 53.9757 22.4004V27.4975ZM59.8716 17.7978H63.5233V32.1001H59.8716V17.7978ZM114.418 17.4174C111.908 17.4174 110.728 18.9389 110.728 18.9389V10.9129H107.077V32.1001C107.077 32.1001 109.892 32.1001 110.158 32.1001C110.462 32.1001 110.69 31.8338 110.69 31.5676V30.9209C110.69 30.9209 111.87 32.4805 114.38 32.4805C118.526 32.4805 121.759 29.2853 121.759 24.949C121.759 20.6126 118.526 17.4174 114.418 17.4174ZM113.81 29.019C112.402 29.019 111.299 28.2963 110.728 27.4595V22.3624C111.299 21.6016 112.516 20.8028 113.81 20.8028C116.244 20.8028 118.108 22.3243 118.108 24.9109C118.108 27.4975 116.244 29.019 113.81 29.019ZM105.175 23.6176V32.1381H101.523V24.036C101.523 21.6777 100.762 20.7267 98.7084 20.7267C97.6053 20.7267 96.4642 21.2973 95.7415 22.1341V32.1001H92.0898V17.7978H94.9807C95.285 17.7978 95.5132 18.0641 95.5132 18.3303V18.9389C96.5783 17.8358 97.9857 17.4174 99.3931 17.4174C100.991 17.4174 102.322 17.8739 103.387 18.7868C104.68 19.8519 105.175 21.2212 105.175 23.6176ZM83.227 17.4174C80.7164 17.4174 79.5373 18.9389 79.5373 18.9389V10.9129H75.8856V32.1001C75.8856 32.1001 78.7004 32.1001 78.9667 32.1001C79.271 32.1001 79.4992 31.8338 79.4992 31.5676V30.9209C79.4992 30.9209 80.6784 32.4805 83.1889 32.4805C87.3351 32.4805 90.5683 29.2853 90.5683 24.949C90.6063 20.6126 87.3731 17.4174 83.227 17.4174ZM82.6183 29.019C81.2109 29.019 80.1078 28.2963 79.5373 27.4595V22.3624C80.1078 21.6016 81.3251 20.8028 82.6183 20.8028C85.0528 20.8028 86.9166 22.3243 86.9166 24.9109C86.9166 27.4975 85.0528 29.019 82.6183 29.019ZM72.7285 17.4174C73.8316 17.4174 74.4021 17.6076 74.4021 17.6076V20.993C74.4021 20.993 71.3591 19.966 69.4572 22.1341V32.1381H65.8055V17.7978C65.8055 17.7978 68.6204 17.7978 68.8866 17.7978C69.1909 17.7978 69.4192 18.0641 69.4192 18.3303V18.9389C70.1038 18.1401 71.5873 17.4174 72.7285 17.4174ZM34.8045 30.8068C34.6144 30.3504 34.4242 29.8559 34.234 29.4374C33.9297 28.7528 33.6254 28.1061 33.3591 27.4975L33.3211 27.4595C30.6964 21.7538 27.8816 15.972 24.9147 10.2663L24.8005 10.038C24.4962 9.46747 24.1919 8.85886 23.8876 8.25025C23.5073 7.56557 23.1269 6.84285 22.5183 6.15816C21.301 4.63664 19.5513 3.7998 17.6874 3.7998C15.7855 3.7998 14.0738 4.63664 12.8186 6.08209C12.248 6.76677 11.8296 7.48949 11.4492 8.17418C11.1449 8.78279 10.8406 9.3914 10.5363 9.96197L10.4222 10.1902C7.49324 15.8959 4.64039 21.6777 2.01577 27.3834L1.97773 27.4595C1.71146 28.0681 1.40716 28.7147 1.10285 29.3994C0.912665 29.8178 0.722474 30.2743 0.532284 30.7688C0.0377899 32.1762 -0.114362 33.5075 0.0758279 34.8769C0.494246 37.7297 2.39615 40.1261 5.02077 41.1912C6.00976 41.6096 7.03679 41.7998 8.10185 41.7998C8.40616 41.7998 8.78654 41.7618 9.09084 41.7237C10.3461 41.5716 11.6394 41.1532 12.8946 40.4304C14.4542 39.5556 15.9377 38.3003 17.6114 36.4745C19.285 38.3003 20.8066 39.5556 22.3281 40.4304C23.5833 41.1532 24.8766 41.5716 26.1319 41.7237C26.4362 41.7618 26.8166 41.7998 27.1209 41.7998C28.1859 41.7998 29.251 41.6096 30.2019 41.1912C32.8646 40.1261 34.7285 37.6917 35.1469 34.8769C35.4512 33.5455 35.299 32.2142 34.8045 30.8068ZM17.6494 32.7848C15.5953 30.1982 14.264 27.7638 13.8076 25.7097C13.6174 24.8348 13.5793 24.0741 13.6934 23.3894C13.7695 22.7808 13.9977 22.2483 14.3021 21.7918C15.0248 20.7648 16.242 20.1181 17.6494 20.1181C19.0568 20.1181 20.3121 20.7267 20.9967 21.7918C21.301 22.2483 21.5293 22.7808 21.6054 23.3894C21.7195 24.0741 21.6814 24.8729 21.4912 25.7097C21.0348 27.7257 19.7035 30.1602 17.6494 32.7848ZM32.8266 34.5726C32.5603 36.5506 31.229 38.2623 29.3651 39.023C28.4522 39.4034 27.4632 39.5175 26.4742 39.4034C25.5233 39.2893 24.5723 38.985 23.5833 38.4144C22.214 37.6537 20.8446 36.4745 19.247 34.7247C21.7575 31.6436 23.279 28.8288 23.8496 26.3183C24.1159 25.1391 24.1539 24.0741 24.0398 23.0851C23.8876 22.1341 23.5453 21.2593 23.0128 20.4985C21.8336 18.7868 19.8556 17.7978 17.6494 17.7978C15.4432 17.7978 13.4652 18.8248 12.286 20.4985C11.7535 21.2593 11.4112 22.1341 11.259 23.0851C11.1069 24.0741 11.1449 25.1772 11.4492 26.3183C12.0198 28.8288 13.5793 31.6817 16.0518 34.7628C14.4922 36.5125 13.0848 37.6917 11.7155 38.4525C10.7265 39.023 9.77553 39.3273 8.82457 39.4414C7.79755 39.5556 6.80856 39.4034 5.93368 39.0611C4.06982 38.3003 2.73849 36.5886 2.47222 34.6106C2.35811 33.6597 2.43419 32.7087 2.81457 31.6436C2.92868 31.2633 3.11887 30.8829 3.30906 30.4264C3.57533 29.8178 3.87963 29.1712 4.18393 28.5245L4.22197 28.4485C6.8466 22.7808 9.66141 16.999 12.5903 11.3694L12.7045 11.1411C13.0088 10.5706 13.3131 9.96197 13.6174 9.3914C13.9217 8.78279 14.264 8.21222 14.6824 7.71772C15.4812 6.80481 16.5463 6.31032 17.7255 6.31032C18.9047 6.31032 19.9697 6.80481 20.7685 7.71772C21.1869 8.21222 21.5293 8.78279 21.8336 9.3914C22.1379 9.96197 22.4422 10.5706 22.7465 11.1411L22.8606 11.3694C25.7515 17.037 28.5663 22.8188 31.1909 28.4865V28.5245C31.4952 29.1331 31.7615 29.8178 32.0658 30.4264C32.256 30.8829 32.4462 31.2633 32.5603 31.6436C32.8646 32.6326 32.9787 33.5836 32.8266 34.5726Z" fill="white"/>
</g>
<g opacity="0.4" clip-path="url(#clip1_286_2018)">
<path d="M58.6247 100.379L56.0814 93.7233C55.9777 93.4511 55.581 93.4511 55.4771 93.7233L52.9342 100.38C52.9162 100.427 52.9102 100.478 52.9167 100.528C52.9233 100.578 52.9423 100.626 52.9719 100.667C53.0016 100.709 53.0412 100.743 53.0873 100.766C53.1334 100.789 53.1846 100.801 53.2365 100.801H58.3224C58.3744 100.801 58.4256 100.789 58.4716 100.766C58.5177 100.742 58.5573 100.709 58.5869 100.667C58.6166 100.626 58.6355 100.578 58.6421 100.528C58.6486 100.478 58.6426 100.427 58.6245 100.38L58.6247 100.379ZM59.7995 104.121H51.7596C51.6938 104.121 51.6296 104.14 51.5756 104.177C51.5216 104.213 51.4804 104.265 51.4575 104.325L49.8747 108.466C49.8518 108.526 49.8106 108.578 49.7566 108.614C49.7026 108.651 49.6384 108.67 49.5726 108.67H46.0878C46.0352 108.67 45.9833 108.658 45.9368 108.634C45.8902 108.61 45.8505 108.575 45.821 108.533C45.7914 108.49 45.7731 108.442 45.7675 108.391C45.7618 108.34 45.7692 108.289 45.7888 108.241L53.8117 88.8364C53.8357 88.7784 53.8771 88.7288 53.9304 88.6938C53.9838 88.6589 54.0466 88.6402 54.111 88.6403H57.4477C57.5792 88.6403 57.6976 88.7179 57.7468 88.8364L65.7695 108.241C65.7892 108.288 65.7966 108.34 65.791 108.391C65.7855 108.442 65.7671 108.49 65.7376 108.533C65.7081 108.575 65.6683 108.61 65.6217 108.634C65.5751 108.658 65.5232 108.671 65.4704 108.671H61.9863C61.9205 108.671 61.8563 108.651 61.8023 108.615C61.7483 108.578 61.7071 108.526 61.6842 108.466L60.1012 104.325C60.0783 104.265 60.0371 104.213 59.9831 104.177C59.9291 104.14 59.8649 104.121 59.7991 104.121H59.7995ZM67.4022 95.4504H70.3827C70.4682 95.4504 70.5501 95.4833 70.6106 95.542C70.671 95.6007 70.705 95.6803 70.705 95.7633V108.358C70.705 108.441 70.671 108.52 70.6106 108.579C70.5501 108.637 70.4682 108.67 70.3827 108.67H67.4022C67.3167 108.67 67.2348 108.637 67.1743 108.579C67.1139 108.52 67.0799 108.441 67.0799 108.358V95.7631C67.0799 95.6801 67.1139 95.6005 67.1743 95.5418C67.2348 95.4831 67.3167 95.4501 67.4022 95.4501V95.4504ZM81.575 98.5139C81.575 98.5969 81.541 98.6765 81.4806 98.7352C81.4202 98.7939 81.3382 98.8268 81.2527 98.8268H81.1625C79.6888 98.8268 78.6078 99.1702 77.9203 99.8569C77.2323 100.544 76.889 101.679 76.889 103.262V108.358C76.889 108.441 76.855 108.52 76.7946 108.579C76.7341 108.637 76.6522 108.67 76.5667 108.67H73.6154C73.53 108.67 73.448 108.637 73.3875 108.579C73.3271 108.52 73.2931 108.441 73.2931 108.358V95.7631C73.2931 95.6801 73.3271 95.6005 73.3875 95.5418C73.448 95.4831 73.53 95.4501 73.6154 95.4501H76.537C76.6225 95.4501 76.7045 95.4831 76.7649 95.5418C76.8254 95.6005 76.8593 95.6801 76.8593 95.7631V98.2542H76.9184C77.2721 97.2241 77.832 96.4329 78.5986 95.8792C79.3646 95.3262 80.3078 95.0494 81.4276 95.0494H81.575V98.5137V98.5139ZM89.7245 98.3975C89.639 98.3975 89.557 98.4305 89.4966 98.4892C89.4362 98.5478 89.4022 98.6274 89.4022 98.7104V103.949C89.4022 104.483 89.5096 104.865 89.7262 105.093C89.9421 105.322 90.3156 105.437 90.846 105.437H91.1428C91.2282 105.437 91.3102 105.47 91.3706 105.528C91.4311 105.587 91.465 105.667 91.465 105.75V108.386C91.465 108.469 91.4311 108.548 91.3706 108.607C91.3102 108.666 91.2282 108.699 91.1428 108.699H89.8734C88.557 108.699 87.5452 108.37 86.8379 107.712C86.1304 107.054 85.7767 106.076 85.7767 104.779V98.7104C85.7767 98.6274 85.7428 98.5478 85.6823 98.4892C85.6219 98.4305 85.5399 98.3975 85.4544 98.3975H83.594C83.5085 98.3975 83.4265 98.3645 83.3661 98.3059C83.3057 98.2472 83.2717 98.1676 83.2717 98.0846V95.7631C83.2717 95.6801 83.3057 95.6005 83.3661 95.5418C83.4265 95.4831 83.5085 95.4501 83.594 95.4501H85.4547C85.5401 95.4501 85.6221 95.4172 85.6825 95.3585C85.743 95.2998 85.7769 95.2202 85.7769 95.1372V90.4693C85.7769 90.3863 85.8109 90.3067 85.8713 90.2481C85.9318 90.1894 86.0137 90.1564 86.0992 90.1564H89.0797C89.1652 90.1564 89.2472 90.1894 89.3076 90.2481C89.368 90.3067 89.402 90.3863 89.402 90.4693V95.1372C89.402 95.2202 89.4359 95.2998 89.4964 95.3585C89.5568 95.4172 89.6388 95.4501 89.7243 95.4501H91.8795C91.965 95.4501 92.0469 95.4831 92.1074 95.5418C92.1678 95.6005 92.2018 95.6801 92.2018 95.7631V98.0848C92.2018 98.1678 92.1678 98.2474 92.1074 98.3061C92.0469 98.3648 91.965 98.3977 91.8795 98.3977H89.7245V98.3975ZM103.372 104.75C104.05 104.063 104.389 103.167 104.389 102.06C104.389 100.954 104.05 100.057 103.372 99.3704C102.694 98.6837 101.805 98.3404 100.705 98.3404C99.6044 98.3404 98.7158 98.6837 98.0377 99.3704C97.3601 100.057 97.021 100.954 97.021 102.06C97.021 103.167 97.3601 104.063 98.0377 104.75C98.7158 105.437 99.6044 105.78 100.705 105.78C101.805 105.78 102.694 105.437 103.372 104.75ZM96.4905 108.27C95.4884 107.717 94.6973 106.91 94.1181 105.852C93.5382 104.793 93.2486 103.529 93.2486 102.06C93.2486 100.592 93.5382 99.3275 94.1181 98.2688C94.6973 97.2101 95.4884 96.4045 96.4905 95.8509C97.4926 95.2977 98.5927 95.021 99.7914 95.021C100.852 95.021 101.761 95.2213 102.518 95.6218C103.274 96.0223 103.878 96.5854 104.33 97.3103H104.389V95.7631C104.389 95.6801 104.423 95.6005 104.483 95.5418C104.544 95.4831 104.626 95.4501 104.711 95.4501H107.662C107.748 95.4501 107.83 95.4831 107.89 95.5418C107.951 95.6005 107.985 95.6801 107.985 95.7631V108.357C107.985 108.44 107.951 108.52 107.89 108.579C107.83 108.637 107.748 108.67 107.662 108.67H104.711C104.626 108.67 104.544 108.637 104.483 108.579C104.423 108.52 104.389 108.44 104.389 108.357V106.81H104.33C103.878 107.536 103.274 108.098 102.518 108.499C101.761 108.899 100.853 109.099 99.7914 109.099C98.5927 109.099 97.4926 108.823 96.4905 108.27ZM120.258 104.75C120.936 104.063 121.275 103.167 121.275 102.06C121.275 100.954 120.936 100.057 120.258 99.3704C119.58 98.6837 118.691 98.3404 117.591 98.3404C116.49 98.3404 115.601 98.6837 114.923 99.3704C114.246 100.057 113.907 100.954 113.907 102.06C113.907 103.167 114.246 104.063 114.923 104.75C115.601 105.437 116.49 105.78 117.591 105.78C118.691 105.78 119.58 105.437 120.258 104.75ZM115.778 108.499C115.022 108.098 114.417 107.536 113.966 106.81H113.907V108.357C113.907 108.44 113.873 108.52 113.812 108.579C113.752 108.637 113.67 108.67 113.584 108.67H110.604C110.518 108.67 110.436 108.637 110.376 108.579C110.315 108.52 110.282 108.44 110.282 108.357V88.9526C110.282 88.8696 110.315 88.79 110.376 88.7313C110.436 88.6726 110.518 88.6396 110.604 88.6396H113.584C113.67 88.6396 113.752 88.6726 113.812 88.7313C113.873 88.79 113.907 88.8696 113.907 88.9526V97.3101H113.966C114.417 96.5852 115.022 96.0223 115.778 95.6218C116.534 95.2211 117.443 95.0208 118.504 95.0208C119.703 95.0208 120.803 95.2974 121.805 95.8507C122.807 96.4043 123.598 97.2099 124.178 98.2684C124.757 99.3277 125.047 100.592 125.047 102.06C125.047 103.53 124.757 104.793 124.178 105.852C123.598 106.911 122.808 107.717 121.806 108.27C120.803 108.823 119.703 109.1 118.505 109.1C117.444 109.1 116.535 108.899 115.778 108.499L115.778 108.499ZM130.069 108.67H127.089C127.003 108.67 126.921 108.637 126.861 108.579C126.8 108.52 126.766 108.441 126.766 108.358V88.9532C126.766 88.8702 126.8 88.7906 126.861 88.7319C126.921 88.6732 127.003 88.6403 127.089 88.6403H130.069C130.155 88.6403 130.237 88.6732 130.297 88.7319C130.357 88.7906 130.391 88.8702 130.391 88.9532V108.358C130.391 108.441 130.357 108.52 130.297 108.579C130.237 108.637 130.155 108.67 130.069 108.67ZM137.1 98.5122C136.605 98.8865 136.272 99.4268 136.099 100.134C136.052 100.328 136.208 100.515 136.414 100.515H142.087C142.283 100.515 142.438 100.344 142.406 100.156C142.293 99.487 141.998 98.9541 141.521 98.5552C140.961 98.0879 140.228 97.8543 139.325 97.8543C138.421 97.8543 137.679 98.0736 137.1 98.5122ZM144.365 96.8668C145.524 98.0975 146.103 99.8383 146.103 102.089V102.463C146.103 102.546 146.069 102.625 146.009 102.684C145.949 102.743 145.867 102.776 145.781 102.776H136.305C136.258 102.776 136.211 102.786 136.169 102.805C136.126 102.825 136.088 102.853 136.057 102.888C136.027 102.923 136.005 102.964 135.993 103.008C135.98 103.053 135.978 103.099 135.986 103.144C136.138 103.98 136.518 104.644 137.129 105.136C137.826 105.7 138.706 105.981 139.767 105.981C141.137 105.981 142.404 105.462 143.57 104.423C143.713 104.297 143.939 104.324 144.049 104.478L145.498 106.497C145.543 106.56 145.563 106.637 145.554 106.713C145.545 106.789 145.508 106.859 145.449 106.91C144.737 107.515 143.947 108.025 143.097 108.427C142.154 108.875 141.044 109.1 139.767 109.1C138.293 109.1 137.006 108.809 135.906 108.227C134.805 107.645 133.951 106.825 133.342 105.766C132.733 104.707 132.428 103.482 132.428 102.089C132.428 100.697 132.723 99.4664 133.312 98.3977C133.902 97.3297 134.727 96.4998 135.788 95.9082C136.849 95.3173 138.087 95.0213 139.502 95.0213C141.584 95.0213 143.205 95.6366 144.365 96.8668ZM71.0943 90.7943C71.0943 91.9746 70.1088 92.9315 68.8929 92.9315C67.6768 92.9315 66.6913 91.9746 66.6913 90.7941C66.6913 89.6136 67.677 88.6568 68.8929 88.6568C70.1088 88.6568 71.0943 89.6136 71.0943 90.7941" fill="white"/>
<path d="M16.9741 82.9962L2.80222 88.6897C2.01412 89.0063 2.02229 90.0934 2.81532 90.3985L17.0463 95.8777C18.2967 96.3592 19.6892 96.3592 20.9395 95.8777L35.1708 90.3983C35.9636 90.0934 35.9722 89.0065 35.1836 88.6899L21.0121 82.996C19.7192 82.4766 18.2668 82.4766 16.9739 82.996" fill="white"/>
<path d="M20.2556 98.8693V112.557C20.2556 113.208 20.9318 113.654 21.5551 113.414L37.4128 107.438C37.5896 107.37 37.7414 107.252 37.8483 107.099C37.9551 106.946 38.0123 106.766 38.0122 106.581V92.8934C38.0122 92.2424 37.3361 91.7966 36.7128 92.0365L20.8551 98.0126C20.6782 98.0807 20.5266 98.1988 20.4197 98.3516C20.3128 98.5044 20.2556 98.6848 20.2556 98.8695" fill="white"/>
<path d="M16.5526 99.5758L11.8464 101.782L11.3685 102.006L1.43401 106.628C0.804481 106.923 0.000488281 106.477 0.000488281 105.798V92.951C0.000488281 92.7053 0.130262 92.4931 0.304295 92.3335C0.375692 92.2645 0.456691 92.2055 0.544935 92.1583C0.782136 92.02 1.12075 91.9831 1.40866 92.0936L16.4735 97.8891C17.2393 98.184 17.2994 99.2258 16.5526 99.5761" fill="white"/>
<path d="M16.552 99.5758L11.8458 101.782L0.303711 92.3333C0.375122 92.2644 0.45612 92.2055 0.54435 92.1583C0.781552 92.02 1.12017 91.9831 1.40807 92.0936L16.473 97.8891C17.2387 98.184 17.2989 99.2258 16.552 99.576" fill="white" fill-opacity="0.25"/>
</g>
<g opacity="0.4" clip-path="url(#clip2_286_2018)">
<path d="M346.119 13.6445V17.2355H336.481V21.1593H345.354V24.776H336.481V32.3228H331.846V13.6445H346.119Z" fill="white"/>
<path d="M349.905 13.6189H353.909V16.7874H349.905V13.6189ZM349.905 18.4837H353.909V32.3165H349.905V18.4837Z" fill="white"/>
<path d="M356.777 18.5093H361.048C362.737 24.6479 363.024 25.9026 363.47 28.5398C364.025 25.4737 364.107 25.1344 364.923 21.8763L365.765 18.4965H369.927L365.465 32.3036H361.233L356.777 18.5093Z" fill="white"/>
<path d="M385.29 28.7958C384.82 29.5497 384.262 30.2439 383.626 30.8634C382.204 32.1491 380.351 32.8486 378.437 32.8221C374.351 32.8221 371.483 30.1785 371.483 25.6785C371.483 22.3435 373.115 18.0548 378.539 18.0548C379.456 18.0267 380.369 18.1884 381.221 18.5298C382.073 18.8711 382.846 19.3849 383.492 20.0392C385.29 21.9595 385.405 24.6735 385.443 26.229H375.626C375.626 27.9509 376.57 29.6664 378.775 29.6664C380.981 29.6664 381.752 28.2069 382.256 27.234L385.29 28.7958ZM381.255 23.675C381.222 22.9553 380.953 22.2667 380.49 21.7162C379.954 21.2152 379.246 20.9422 378.514 20.9545C378.128 20.9521 377.747 21.0305 377.393 21.1849C377.04 21.3392 376.722 21.566 376.461 21.8507C376.023 22.3691 375.74 23.0016 375.645 23.675H381.255Z" fill="white"/>
<path d="M389.459 14.515H393.494V18.8293H396.152V21.313H393.468V27.5604C393.468 28.4054 393.468 29.1415 394.52 29.1415L395.974 29.0903V32.2588C395.268 32.3865 394.554 32.4571 393.838 32.47C392.436 32.47 390.912 32.3932 390.013 31.1194C389.459 30.3001 389.433 29.3207 389.433 28.0021V21.2874H387.432V18.7973H389.433L389.459 14.515Z" fill="white"/>
<path d="M403.444 19.9367C404.549 18.9654 405.954 18.4068 407.422 18.3557V21.9659L406.083 22.1771C404.133 22.5164 403.534 22.8172 403.534 24.5583V32.3164H399.499V18.4837H403.451L403.444 19.9367Z" fill="white"/>
<path d="M410.354 22.4396C410.346 21.8508 410.473 21.2681 410.725 20.7365C410.977 20.2048 411.348 19.7385 411.808 19.3734C413.083 18.3749 414.702 18.1636 416.314 18.1636C417.927 18.1636 422.096 18.5541 422.096 22.1259V30.1209C422.096 31.6059 422.173 31.8172 422.491 32.2908H418.539V31.0106C417.487 31.7787 416.353 32.6557 414.332 32.6557C411.183 32.6557 409.832 30.3769 409.832 28.431C409.832 26.2098 411.597 24.9424 412.726 24.4687C414.497 23.8979 416.311 23.4698 418.15 23.1885V22.446C418.099 21.8059 418.048 20.7497 416.576 20.7497C414.785 20.7497 414.542 21.8635 414.44 22.3692L410.354 22.4396ZM415.492 26.6003C414.81 26.8627 413.752 27.2404 413.752 28.3157C413.773 28.7063 413.947 29.0727 414.236 29.3351C414.525 29.5976 414.905 29.735 415.295 29.7176C415.792 29.7022 416.276 29.547 416.691 29.2695C418.029 28.4246 418.087 27.1572 418.118 25.7233L415.492 26.6003Z" fill="white"/>
<path d="M430.791 19.751C431.165 19.2925 431.635 18.923 432.168 18.6693C432.96 18.3355 433.808 18.1574 434.667 18.1444C435.517 18.1235 436.36 18.3126 437.121 18.6949C438.568 19.463 438.938 20.7048 438.938 22.8492V32.3164H434.909V24.5391C434.978 23.8465 434.916 23.1469 434.724 22.4779C434.564 22.1371 434.305 21.8533 433.98 21.6646C433.656 21.4758 433.281 21.3911 432.907 21.4217C430.772 21.4217 430.772 23.1436 430.772 24.8591V32.3164H426.73V18.5349H430.817L430.791 19.751Z" fill="white"/>
<path d="M307.107 22.8364H311.384C311.553 22.8364 311.716 22.769 311.835 22.6489C311.955 22.5289 312.022 22.3661 312.022 22.1963C312.021 22.1085 312.004 22.0215 311.971 21.9403L304.615 1.83446C304.569 1.71617 304.49 1.61409 304.387 1.54115C304.283 1.46822 304.161 1.42773 304.035 1.4248H299.745C299.575 1.4248 299.413 1.49223 299.294 1.61228C299.174 1.73232 299.107 1.89515 299.107 2.06491C299.107 2.13914 299.12 2.21278 299.145 2.28255L306.508 22.4396C306.556 22.5585 306.64 22.66 306.747 22.7307C306.853 22.8015 306.979 22.8383 307.107 22.8364Z" fill="white"/>
<path d="M306.348 44.2032H310.626C310.795 44.2032 310.957 44.1358 311.076 44.0157C311.196 43.8957 311.263 43.7329 311.263 43.5631C311.263 43.4889 311.25 43.4152 311.225 43.3454L296.06 1.84724C296.014 1.72795 295.934 1.62518 295.829 1.55217C295.725 1.47915 295.601 1.43924 295.474 1.43758H291.203C291.034 1.43758 290.871 1.50501 290.752 1.62505C290.632 1.74509 290.565 1.90792 290.565 2.07769C290.565 2.15191 290.578 2.22555 290.603 2.29532L305.768 43.7999C305.815 43.917 305.895 44.0178 305.998 44.0895C306.101 44.1613 306.223 44.2008 306.348 44.2032Z" fill="white"/>
<path d="M297.921 44.2032H302.192C302.353 44.2038 302.508 44.1434 302.626 44.0342C302.744 43.925 302.817 43.7751 302.83 43.6143C302.83 43.5297 302.817 43.4455 302.792 43.3647L295.41 23.2397C295.365 23.1214 295.285 23.0193 295.182 22.9464C295.079 22.8734 294.956 22.8329 294.83 22.83H290.533C290.371 22.8398 290.219 22.9116 290.107 23.0306C289.996 23.1495 289.934 23.3068 289.934 23.4701C289.934 23.5402 289.947 23.6097 289.972 23.675L297.322 43.8064C297.371 43.9253 297.454 44.0268 297.561 44.0975C297.668 44.1683 297.793 44.2052 297.921 44.2032Z" fill="white"/>
<path d="M307.623 2.30175L311.072 11.7177C311.117 11.836 311.197 11.9381 311.3 12.0111C311.403 12.084 311.526 12.1245 311.652 12.1274H315.91C316.079 12.1274 316.241 12.06 316.361 11.9399C316.48 11.8199 316.548 11.6571 316.548 11.4873C316.548 11.4131 316.535 11.3394 316.509 11.2697L313.061 1.84726C313.015 1.72896 312.936 1.62688 312.833 1.55395C312.729 1.48101 312.607 1.44052 312.481 1.4376H308.203C308.034 1.4376 307.872 1.50503 307.753 1.62507C307.633 1.74512 307.566 1.90794 307.566 2.07771C307.571 2.15527 307.591 2.23119 307.623 2.30175Z" fill="white"/>
<path d="M290.036 44.2032H294.307C294.476 44.2032 294.638 44.1358 294.758 44.0157C294.877 43.8957 294.945 43.7329 294.945 43.5631C294.944 43.4889 294.932 43.4152 294.906 43.3455L291.439 33.9039C291.393 33.7846 291.312 33.6818 291.208 33.6088C291.103 33.5358 290.979 33.4959 290.852 33.4942H286.588C286.419 33.4942 286.256 33.5616 286.137 33.6817C286.017 33.8017 285.95 33.9646 285.95 34.1343C285.95 34.2106 285.963 34.2863 285.988 34.3584L289.437 43.8C289.485 43.9201 289.567 44.0229 289.674 44.0949C289.781 44.1669 289.907 44.2047 290.036 44.2032Z" fill="white"/>
</g>
<g opacity="0.4" clip-path="url(#clip3_286_2018)">
<path d="M285.95 77.8999H313.636V91.7427H299.793L285.95 77.8999ZM285.95 91.7427H299.793L313.636 105.585H285.95V91.7427ZM285.95 105.585H299.793V119.428L285.95 105.585Z" fill="white"/>
<path d="M329.257 88.8205H340.448V92.3767H333.493V97.3186H340.448V100.796H333.493V107.124H329.257V88.8205ZM342.749 94.5205H346.75V97.1615C346.959 96.2539 347.386 95.5573 348.031 95.0696C348.692 94.5636 349.426 94.3115 350.227 94.3115C350.646 94.3115 350.995 94.347 351.273 94.416V98.1292C350.874 98.0811 350.472 98.0551 350.07 98.0507C348.972 98.0507 348.145 98.4073 347.586 99.1223C347.029 99.8196 346.75 100.865 346.75 102.26V107.124H342.751V94.5205H342.749ZM357.588 107.464C356.369 107.464 355.305 107.176 354.398 106.601C353.509 106.026 352.802 105.209 352.359 104.247C351.888 103.237 351.652 102.094 351.652 100.822C351.652 99.5669 351.897 98.4332 352.385 97.4231C352.842 96.4471 353.568 95.6219 354.477 95.0436C355.4 94.4686 356.455 94.1804 357.641 94.1804C358.53 94.1804 359.324 94.3729 360.02 94.7561C360.717 95.1405 361.24 95.6637 361.589 96.3249V94.5205H365.563V107.124H361.589V105.345C361.24 105.973 360.7 106.487 359.968 106.888C359.236 107.276 358.417 107.474 357.588 107.464ZM358.739 104.143C359.697 104.143 360.438 103.829 360.961 103.202C361.485 102.574 361.746 101.78 361.746 100.822C361.746 99.881 361.485 99.0963 360.961 98.4687C360.438 97.8411 359.697 97.5276 358.739 97.5276C357.832 97.5276 357.101 97.8322 356.543 98.4427C356.002 99.0533 355.732 99.8456 355.732 100.822C355.732 101.799 356.002 102.6 356.543 103.228C357.101 103.838 357.833 104.143 358.739 104.143ZM368.361 94.5205H372.362V96.3508C372.642 95.7048 373.094 95.1817 373.721 94.7821C374.367 94.3824 375.116 94.1804 375.97 94.1804C377.958 94.1804 379.274 94.9556 379.918 96.5079C380.273 95.8043 380.828 95.2222 381.514 94.8346C382.247 94.3932 383.09 94.1671 383.945 94.1804C386.926 94.1804 388.416 95.8879 388.416 99.3053V107.124H384.39V100.037C384.39 99.1844 384.233 98.5567 383.919 98.1552C383.605 97.7549 383.134 97.5535 382.507 97.5535C381.827 97.5535 381.304 97.7891 380.938 98.2597C380.572 98.7132 380.389 99.5055 380.389 100.639V107.124H376.362V100.011C376.362 99.1578 376.206 98.5384 375.892 98.1552C375.597 97.7549 375.134 97.5535 374.507 97.5535C373.809 97.5535 373.277 97.7891 372.911 98.2597C372.545 98.7132 372.362 99.5055 372.362 100.639V107.124H368.363V94.5205H368.361ZM403.445 100.169C403.445 100.708 403.41 101.293 403.339 101.92H394.032C394.068 102.74 394.346 103.366 394.869 103.803C395.392 104.238 396.099 104.457 396.987 104.457C398.225 104.457 399.01 104.081 399.34 103.332H403.262C403.07 104.57 402.39 105.572 401.222 106.339C400.072 107.088 398.66 107.464 396.987 107.464C394.826 107.464 393.126 106.879 391.888 105.711C390.668 104.543 390.057 102.914 390.057 100.822C390.057 99.4624 390.336 98.2857 390.894 97.292C391.433 96.2995 392.264 95.4965 393.274 94.9911C394.303 94.4515 395.497 94.1804 396.858 94.1804C398.146 94.1804 399.288 94.4331 400.281 94.9391C401.292 95.4452 402.069 96.1507 402.608 97.057C403.167 97.9646 403.445 99.0013 403.445 100.169ZM399.495 99.4364C399.478 98.5998 399.243 97.9627 398.789 97.5276C398.337 97.0925 397.682 96.874 396.828 96.874C395.975 96.874 395.295 97.1089 394.789 97.5801C394.301 98.0336 394.049 98.6517 394.03 99.4364H399.495ZM405.209 94.5205H409.21V97.1615C409.419 96.2539 409.847 95.5573 410.491 95.0696C411.117 94.5769 411.891 94.3096 412.688 94.3115C413.106 94.3115 413.455 94.347 413.733 94.416V98.1292C413.334 98.0811 412.933 98.0551 412.531 98.0507C411.432 98.0507 410.605 98.4073 410.047 99.1223C409.488 99.8196 409.21 100.865 409.21 102.26V107.124H405.209V94.5205Z" fill="white"/>
</g>
<g opacity="0.4" clip-path="url(#clip4_286_2018)">
<path fill-rule="evenodd" clip-rule="evenodd" d="M636.113 30.0367C639.247 30.0367 641.796 27.5382 641.796 24.4673C641.796 21.3961 639.247 18.8977 636.113 18.8977C632.979 18.8977 630.429 21.3961 630.429 24.4673C630.429 27.5382 632.979 30.0367 636.113 30.0367ZM641.796 10.626H641.95H644.488V32.6941H641.796V30.4907C640.242 31.9021 638.238 32.6753 636.113 32.6753C631.495 32.6753 627.737 28.9931 627.737 24.4673C627.737 19.9411 631.495 16.2591 636.113 16.2591C638.238 16.2591 640.242 17.0322 641.796 18.4437V10.626ZM580.276 29.9395C583.41 29.9395 585.959 27.4411 585.959 24.37C585.959 21.299 583.41 18.8006 580.276 18.8006C577.142 18.8006 574.593 21.299 574.593 24.37C574.593 27.4411 577.142 29.9395 580.276 29.9395ZM574.593 18.3467C576.147 16.9352 578.151 16.162 580.276 16.162C584.894 16.162 588.651 19.8442 588.651 24.37C588.651 28.8959 584.894 32.578 580.276 32.578C578.151 32.578 576.147 31.805 574.593 30.3934V38.2112H571.9V16.143H574.593V18.3467ZM593.789 23.0885C594.395 20.5943 596.652 18.8034 599.228 18.8034C601.77 18.8034 603.899 20.5561 604.466 23.0885H593.789ZM599.228 16.143C594.679 16.143 590.978 19.8556 590.978 24.4186C590.978 28.9817 594.679 32.6941 599.228 32.6941C601.775 32.6941 604.113 31.7374 605.643 30.0694L606.438 29.2023L606.541 29.0904L606.429 28.9872L604.701 27.3925L604.589 27.2895L604.486 27.4014L603.691 28.2686C602.678 29.3739 601.009 30.0339 599.228 30.0339C596.652 30.0339 594.395 28.243 593.789 25.7487H607.263V24.4186C607.263 19.7781 603.734 16.143 599.228 16.143ZM660.408 24.4186C660.408 27.5149 657.859 30.0338 654.725 30.0338C651.591 30.0338 649.042 27.5149 649.042 24.4186C649.042 21.3223 651.591 18.8033 654.725 18.8033C657.859 18.8033 660.408 21.3223 660.408 24.4186ZM654.725 16.143C650.107 16.143 646.349 19.8554 646.349 24.4186C646.349 28.9817 650.107 32.6941 654.725 32.6941C659.343 32.6941 663.1 28.9817 663.1 24.4186C663.1 19.8554 659.343 16.143 654.725 16.143ZM617.267 16.143C615.397 16.143 613.614 16.8554 612.211 18.1566V16.143H609.59V32.6941H612.211V24.2478C612.211 21.2344 614.48 18.7826 617.267 18.7826C620.056 18.7826 622.324 21.2344 622.324 24.2478V32.6941H624.945V24.2478C624.945 19.7789 621.501 16.143 617.267 16.143Z" fill="white"/>
<path fill-rule="evenodd" clip-rule="evenodd" d="M541.5 26.389H554.167V38.7743L566.834 26.389V14.0039H554.167L541.5 26.389Z" fill="white"/>
</g>
<g opacity="0.4" clip-path="url(#clip5_286_2018)">
<path fill-rule="evenodd" clip-rule="evenodd" d="M566.694 86.4503H543.857C542.555 86.4503 541.5 87.5052 541.5 88.8066V111.643C541.5 112.945 542.555 114 543.857 114H566.694C567.995 114 569.05 112.945 569.05 111.643V88.8066C569.05 87.5049 567.995 86.4503 566.694 86.4503ZM555.976 101.629C553.917 101.629 552.981 99.6383 552.981 97.7935C552.981 94.8888 554.555 93.8545 556.027 93.8545C557.834 93.8545 559.048 95.4258 559.048 97.7664C559.048 100.436 557.504 101.629 555.976 101.629ZM562.928 97.7152C562.928 93.3616 560.445 90.437 556.753 90.437C554.604 90.437 553.361 91.4114 552.761 92.0838C552.689 91.504 552.31 90.7518 550.833 90.7518H547.623V94.1423H548.938C549.161 94.1423 549.233 94.2135 549.233 94.4386V109.921H553.059V104.11C553.059 103.953 553.056 103.807 553.052 103.676C553.649 104.228 554.791 104.992 556.573 104.992C560.313 104.992 562.928 102 562.928 97.7152Z" fill="white"/>
<path fill-rule="evenodd" clip-rule="evenodd" d="M579.159 93.8689C579.836 93.11 581.241 92.0104 583.668 92.0104C587.839 92.0104 590.644 95.311 590.644 100.224C590.644 105.06 587.689 108.436 583.465 108.436C581.451 108.436 580.162 107.574 579.487 106.951C579.492 107.099 579.495 107.264 579.495 107.441V113.999H575.174V96.5264C575.174 96.2724 575.093 96.192 574.841 96.192H573.355V92.3657H576.981C578.65 92.3657 579.077 93.2145 579.159 93.8689ZM582.848 95.8672C581.185 95.8672 579.407 97.0344 579.407 100.312C579.407 102.394 580.464 104.64 582.791 104.64C584.516 104.64 586.26 103.295 586.26 100.282C586.26 97.6405 584.889 95.8672 582.848 95.8672Z" fill="white"/>
<path d="M596.446 103.951V94.6924C596.446 93.1281 595.699 92.3661 594.166 92.3661H590.304V96.1924H591.792C592.042 96.1924 592.124 96.2744 592.124 96.5268V105.753C592.124 107.342 592.848 108.08 594.399 108.08H598.266V104.287H596.778C596.539 104.287 596.446 104.191 596.446 103.951Z" fill="white"/>
<path fill-rule="evenodd" clip-rule="evenodd" d="M603.223 93.8689C603.904 93.11 605.306 92.0104 607.736 92.0104C611.905 92.0104 614.708 95.311 614.708 100.224C614.708 105.06 611.757 108.436 607.532 108.436C605.519 108.436 604.225 107.574 603.553 106.951C603.558 107.099 603.563 107.264 603.563 107.441V113.999H599.239V96.5264C599.239 96.2724 599.157 96.192 598.907 96.192H597.421V92.3657H601.048C602.718 92.3657 603.144 93.2145 603.223 93.8689ZM603.472 100.312C603.472 102.394 604.534 104.64 606.854 104.64C608.584 104.64 610.327 103.295 610.327 100.282C610.327 97.6405 608.955 95.8672 606.915 95.8672C605.25 95.8672 603.472 97.0344 603.472 100.312Z" fill="white"/>
<path fill-rule="evenodd" clip-rule="evenodd" d="M614.929 100.225C614.929 95.3889 618.185 92.0111 622.841 92.0111C626.993 92.0111 629.783 95.0143 629.783 99.4837C629.783 99.9371 629.698 100.865 629.69 100.903L629.667 101.189H619.419C619.794 103.28 621.378 104.612 623.544 104.612C625.723 104.612 627.39 103.132 627.519 103.018C627.523 103.014 627.526 103.011 627.527 103.011L627.806 102.744L629.689 105.894L629.515 106.067C629.412 106.167 627.086 108.437 623.282 108.437C618.441 108.437 614.929 104.982 614.929 100.225ZM622.841 95.54C621.221 95.54 620.049 96.4146 619.58 97.9564H625.32C625.143 96.5384 624.142 95.54 622.841 95.54Z" fill="white"/>
<path fill-rule="evenodd" clip-rule="evenodd" d="M645.501 88.776V103.951C645.501 104.191 645.593 104.287 645.832 104.287H647.288V108.08H643.544C641.927 108.08 641.492 107.221 641.405 106.543C640.733 107.321 639.359 108.437 636.975 108.437C632.804 108.437 630.001 105.138 630.001 100.224C630.001 95.3885 632.927 92.0107 637.12 92.0107C639.265 92.0107 640.51 92.7744 641.148 93.3548V90.612C641.148 90.358 641.066 90.2776 640.816 90.2776H639.328V86.4497H643.19C644.743 86.4497 645.501 87.2118 645.501 88.776ZM634.41 100.224C634.41 102.906 635.739 104.641 637.795 104.641C639.458 104.641 641.237 103.475 641.237 100.196C641.237 98.0396 640.19 95.8676 637.854 95.8676C635.794 95.8676 634.41 97.6168 634.41 100.224Z" fill="white"/>
<path d="M656.904 92.1585C655.105 92.1585 653.45 93.2051 652.468 94.8723V94.5137C652.468 93.0893 651.688 92.3659 650.158 92.3659H646.443V96.1922H647.929C648.179 96.1922 648.262 96.2726 648.262 96.5265V108.08H652.583V101.792C652.583 100.964 652.688 100.166 652.892 99.4284C653.543 97.2597 655.271 96.488 656.669 96.488C657.165 96.488 657.526 96.5411 657.532 96.5426L657.892 96.5973V92.2662L657.629 92.2212C657.617 92.218 657.25 92.1585 656.904 92.1585Z" fill="white"/>
<path d="M664.043 103.951V94.6924C664.043 93.1281 663.299 92.3661 661.766 92.3661H658.273V96.1924H659.389C659.641 96.1924 659.721 96.2744 659.721 96.5269V105.753C659.721 107.342 660.446 108.08 662.001 108.08H665.864V104.287H664.375C664.136 104.287 664.043 104.191 664.043 103.951Z" fill="white"/>
<path d="M680.357 92.3661H678.052C676.704 92.3661 675.982 92.8372 675.554 93.9931L672.737 101.927C672.64 102.221 672.549 102.551 672.47 102.868C672.389 102.551 672.292 102.216 672.185 101.922L669.367 93.9915C668.935 92.8227 668.237 92.3661 666.873 92.3661H664.42V96.1924H665.056C665.394 96.1924 665.503 96.3082 665.583 96.5204L669.943 108.08H674.803L679.164 96.5204C679.244 96.3082 679.356 96.1924 679.693 96.1924H680.357V92.3661Z" fill="white"/>
<path fill-rule="evenodd" clip-rule="evenodd" d="M679.889 100.225C679.889 95.3889 683.144 92.0111 687.799 92.0111C691.953 92.0111 694.745 95.0143 694.745 99.4837C694.745 99.9371 694.658 100.865 694.653 100.903L694.629 101.189H684.378C684.753 103.28 686.338 104.612 688.504 104.612C690.752 104.612 692.47 103.025 692.485 103.011L692.771 102.744L694.65 105.894L694.474 106.067C694.377 106.164 692.049 108.437 688.24 108.437C683.399 108.437 679.889 104.982 679.889 100.225ZM687.799 95.54C686.18 95.54 685.013 96.4146 684.539 97.9564H690.279C690.102 96.5384 689.103 95.54 687.799 95.54Z" fill="white"/>
<path d="M596.151 86.4508H592.299V90.5423H596.151V86.4508Z" fill="white"/>
<path d="M663.75 86.4508H659.897V90.5423H663.75V86.4508Z" fill="white"/>
</g>
<g opacity="0.4" clip-path="url(#clip6_286_2018)">
<path d="M933.596 22.443V18.0786C932.742 18.1127 930.181 18.4611 929.047 19.8202V18.3791H924.266V32.9203H929.047V26.0492C929.73 22.8118 932.824 22.4703 933.609 22.443H933.596ZM890.771 22.6137C890.258 22.1549 889.672 21.7855 889.036 21.5209C888.513 21.2659 887.938 21.135 887.356 21.1384C886.925 21.1342 886.498 21.2251 886.106 21.4048C885.928 21.4773 885.776 21.6039 885.673 21.7668C885.571 21.9297 885.521 22.1208 885.533 22.3132C885.528 22.5083 885.587 22.6996 885.7 22.8585C885.813 23.0174 885.975 23.1352 886.161 23.1943C886.828 23.4413 887.513 23.6376 888.21 23.7817C888.777 23.9047 889.335 24.0714 889.876 24.2803C890.421 24.4881 890.932 24.7758 891.393 25.134C891.842 25.4873 892.214 25.929 892.486 26.4317C892.772 26.9936 892.913 27.6182 892.895 28.2485C892.925 29.0183 892.752 29.7823 892.392 30.4634C892.032 31.1446 891.499 31.7188 890.846 32.128C890.22 32.5338 889.526 32.823 888.797 32.9818C888.064 33.1578 887.312 33.2472 886.557 33.2481C885.361 33.2482 884.173 33.0545 883.04 32.6744C881.963 32.3396 880.979 31.7598 880.164 30.9805L882.527 28.0231C883.103 28.5493 883.758 28.9825 884.467 29.3072C885.088 29.6194 885.773 29.7809 886.468 29.7785C886.874 29.7743 887.273 29.6786 887.636 29.4984C887.821 29.4126 887.975 29.2724 888.077 29.0966C888.18 28.9208 888.226 28.7178 888.21 28.5149C888.212 28.2986 888.148 28.0868 888.026 27.9084C887.904 27.73 887.729 27.5935 887.527 27.5177C886.815 27.2213 886.076 26.9926 885.321 26.8347C884.799 26.7121 884.285 26.5547 883.784 26.3634C883.29 26.1717 882.83 25.9044 882.418 25.5711C882.025 25.2357 881.7 24.8275 881.462 24.3691C881.195 23.8207 881.064 23.2164 881.079 22.6069C881.057 21.8186 881.251 21.0391 881.639 20.353C882.005 19.7354 882.508 19.2098 883.108 18.8162C883.704 18.4167 884.365 18.1232 885.061 17.9488C885.761 17.7655 886.482 17.6714 887.206 17.6688C888.301 17.6677 889.389 17.8406 890.43 18.181C891.423 18.4914 892.335 19.0187 893.1 19.7246L890.771 22.6137ZM918.754 23.7612C918.748 23.0918 918.506 22.446 918.071 21.9376C917.79 21.6501 917.449 21.4283 917.072 21.2878C916.696 21.1473 916.293 21.0916 915.892 21.1248C915.457 21.1211 915.024 21.1951 914.615 21.3433C914.243 21.4793 913.898 21.6805 913.597 21.9376C913.317 22.1886 913.085 22.4897 912.914 22.8255C912.762 23.1168 912.667 23.4344 912.634 23.7612H918.754ZM923.159 25.7351V26.3156C923.17 26.4999 923.17 26.6846 923.159 26.8689H912.614C912.644 27.2591 912.769 27.6363 912.976 27.9685C913.181 28.3019 913.448 28.5938 913.761 28.8291C914.089 29.0739 914.453 29.2653 914.84 29.396C915.238 29.5325 915.656 29.6018 916.077 29.6009C916.744 29.6203 917.405 29.4748 918.003 29.1774C918.505 28.9143 918.942 28.5407 919.28 28.0846L922.606 30.1814C921.913 31.1699 920.97 31.9571 919.874 32.4627C918.664 33.0073 917.348 33.2756 916.022 33.2481C914.969 33.2542 913.923 33.081 912.928 32.7359C911.989 32.416 911.123 31.9122 910.38 31.2537C909.643 30.5876 909.058 29.7698 908.666 28.8564C908.229 27.8292 908.015 26.7212 908.038 25.6053C908.023 24.5032 908.23 23.4093 908.645 22.3883C909.028 21.4718 909.593 20.6423 910.305 19.95C911.021 19.2734 911.864 18.7442 912.784 18.3928C913.776 18.0151 914.831 17.8274 915.892 17.8395C916.899 17.8301 917.898 18.0132 918.836 18.3791C919.708 18.7231 920.494 19.2548 921.138 19.9363C921.799 20.6488 922.31 21.4874 922.64 22.402C923.014 23.4682 923.196 24.5918 923.18 25.7214L923.159 25.7351ZM865.561 22.32V17.9283H861.463V14.6704C861.361 12.7921 860.473 11.3919 856.846 11.3919V28.31C856.843 28.9879 856.93 29.6632 857.106 30.318C857.261 30.8933 857.541 31.4274 857.925 31.8821C858.338 32.3351 858.857 32.6779 859.435 32.8793C860.243 33.1363 861.087 33.2609 861.935 33.2481C863.17 33.2632 864.397 33.0597 865.561 32.6471V28.7539C864.785 28.9531 863.987 29.0586 863.185 29.0681C862.935 29.099 862.681 29.0713 862.444 28.9871C862.207 28.9029 861.993 28.7646 861.819 28.5832C861.545 28.1397 861.423 27.6198 861.47 27.1011V22.32H865.561Z" fill="white"/>
<path d="M903.912 25.1615L909.308 18.3314H903.598L898.817 24.3692V14.8071C898.728 12.84 897.875 11.3921 894.193 11.3921V32.9204H898.817V25.9674L904.281 32.9204H910.053L903.912 25.1615ZM879.351 32.9067V23.2764C879.351 19.1305 876.059 17.6416 873.143 17.6416C870.847 17.527 868.588 18.2557 866.791 19.6906L869.202 22.6822C870.173 21.8295 871.386 21.3017 872.672 21.1727C874.427 21.1727 874.789 22.1767 874.789 23.4608V23.7067H873.211C869.154 23.7067 866.716 25.462 866.716 28.5902C866.716 32.0052 869.721 32.8931 873.382 32.8931L879.351 32.9067ZM874.789 29.881H873.273C872.091 29.881 871.367 29.3893 871.367 28.3716C871.367 27.3539 872.091 26.7665 873.539 26.7665H874.789V29.881ZM840.004 14.0353C840.004 14.7418 840.284 15.4193 840.784 15.9188C841.283 16.4184 841.961 16.699 842.667 16.699C843.374 16.699 844.051 16.4184 844.551 15.9188C845.05 15.4193 845.331 14.7418 845.331 14.0353C845.331 13.3288 845.05 12.6513 844.551 12.1518C844.051 11.6522 843.374 11.3716 842.667 11.3716C841.961 11.3716 841.283 11.6522 840.784 12.1518C840.284 12.6513 840.004 13.3288 840.004 14.0353ZM840.454 17.9626H840.256V32.9204H845.071V21.1112C844.935 19.2944 844.006 17.9626 840.454 17.9626ZM855.788 22.4431V18.0787C854.941 18.1128 852.373 18.4612 851.239 19.8204V18.3792H846.458V32.9204H851.239V26.1655C851.236 26.1268 851.236 26.088 851.239 26.0494C851.922 22.8119 855.009 22.4704 855.801 22.4431H855.788ZM932.209 30.728H931.943V31.2334H932.209C932.244 31.2352 932.278 31.2301 932.31 31.2182C932.342 31.2063 932.372 31.188 932.397 31.1644C932.422 31.1407 932.442 31.1122 932.455 31.0806C932.469 31.0491 932.476 31.015 932.476 30.9807C932.476 30.9463 932.469 30.9123 932.455 30.8807C932.442 30.8491 932.422 30.8206 932.397 30.797C932.372 30.7733 932.342 30.755 932.31 30.7431C932.278 30.7313 932.244 30.7261 932.209 30.728ZM932.476 32.1281L932.148 31.4451H931.943V32.1281H931.642V30.4684H932.284C932.352 30.4666 932.42 30.4785 932.484 30.5035C932.547 30.5285 932.605 30.5661 932.653 30.6139C932.702 30.6618 932.74 30.7189 932.766 30.7819C932.792 30.845 932.804 30.9126 932.803 30.9807C932.804 31.0801 932.774 31.1772 932.716 31.2581C932.658 31.3391 932.577 31.3998 932.482 31.4315L932.844 32.1145L932.476 32.1281ZM932.161 30.0791C931.912 30.0668 931.665 30.1296 931.451 30.2592C931.238 30.3889 931.068 30.5795 930.964 30.8066C930.86 31.0336 930.826 31.2866 930.867 31.533C930.908 31.7793 931.022 32.0077 931.194 32.1887C931.366 32.3698 931.589 32.495 931.833 32.5485C932.077 32.6019 932.331 32.581 932.563 32.4885C932.795 32.3959 932.994 32.236 933.134 32.0294C933.274 31.8227 933.35 31.5788 933.35 31.329C933.354 31.1688 933.327 31.0092 933.27 30.8595C933.213 30.7099 933.126 30.573 933.016 30.4568C932.905 30.3407 932.773 30.2475 932.626 30.1827C932.48 30.1178 932.322 30.0826 932.161 30.0791ZM932.161 32.8658C931.857 32.8752 931.556 32.7938 931.298 32.632C931.04 32.4702 930.835 32.2353 930.711 31.957C930.587 31.6788 930.548 31.3699 930.599 31.0695C930.651 30.7691 930.791 30.4909 931.001 30.2701C931.211 30.0494 931.482 29.8961 931.779 29.8298C932.077 29.7635 932.387 29.7871 932.671 29.8977C932.955 30.0083 933.2 30.2008 933.374 30.4508C933.549 30.7008 933.645 30.997 933.65 31.3017C933.656 31.7027 933.502 32.0895 933.223 32.3775C932.944 32.6655 932.562 32.8313 932.161 32.8384V32.8658ZM826.815 24.4853L828.952 18.3382L831.09 24.4853H826.815ZM831.2 11.3921H826.903L820.271 28.918H817.662C815.884 28.9933 814.121 28.5521 812.588 27.6476C811.977 27.2554 811.481 26.7079 811.15 26.061C810.82 25.4142 810.668 24.6912 810.709 23.9662V21.9172H808.592C806.623 21.8632 804.737 21.1102 803.271 19.793C802.127 18.5924 801.407 17.0498 801.222 15.4013H816.064C818.762 15.4013 819.759 16.7195 820.381 17.9011C820.686 18.4938 820.916 19.1225 821.064 19.7725L822.942 14.8071C822.942 14.8071 821.371 11.3921 816.064 11.3921H797.049V13.4411C797.049 17.3069 798.197 20.4077 800.464 22.6343C802.244 24.3188 804.496 25.4197 806.919 25.7898C807.773 30.1747 811.802 32.9067 817.662 32.9067H823.755L825.121 28.959H832.75L834.116 32.8999H839.327L831.2 11.3921Z" fill="white"/>
</g>
<g opacity="0.4" clip-path="url(#clip7_286_2018)">
<path d="M934.284 97.4558C936.299 97.4558 937.075 98.6884 937.184 99.7618C937.185 99.778 937.183 99.7943 937.178 99.8097C937.173 99.8252 937.165 99.8393 937.154 99.8513C937.143 99.8633 937.129 99.8729 937.115 99.8794C937.1 99.886 937.084 99.8893 937.067 99.8892H931.535C931.518 99.8892 931.502 99.8857 931.487 99.8789C931.472 99.8721 931.458 99.8622 931.447 99.8498C931.437 99.8374 931.428 99.8228 931.423 99.807C931.419 99.7912 931.417 99.7745 931.419 99.7581C931.569 98.7094 932.498 97.4558 934.284 97.4558ZM937.317 104.28C937.28 104.28 937.244 104.288 937.211 104.305C937.178 104.322 937.15 104.346 937.128 104.376C936.629 105.078 935.817 105.512 934.605 105.512C932.934 105.512 931.484 104.414 931.327 102.858C931.326 102.842 931.328 102.826 931.333 102.81C931.338 102.795 931.346 102.781 931.357 102.769C931.368 102.757 931.381 102.747 931.396 102.741C931.411 102.734 931.427 102.731 931.443 102.731H941.383C941.412 102.643 941.47 101.977 941.47 101.368C941.47 96.732 938.706 93.979 934.226 93.979C930.473 93.979 927.011 96.9341 927.011 101.571C927.011 106.41 930.561 109.25 934.546 109.25C938.149 109.25 940.431 107.234 941.171 104.798C941.176 104.783 941.2 104.692 941.228 104.56C941.235 104.526 941.234 104.491 941.226 104.457C941.218 104.424 941.202 104.392 941.18 104.366C941.159 104.339 941.131 104.317 941.1 104.302C941.069 104.288 941.035 104.28 941 104.28H937.317ZM946.106 101.497L941.393 94.7783C941.369 94.7435 941.355 94.7026 941.352 94.6602C941.349 94.6177 941.358 94.5754 941.378 94.5377C941.398 94.5 941.428 94.4685 941.464 94.4466C941.5 94.4246 941.542 94.4131 941.585 94.4133H946.218C946.298 94.4133 946.371 94.4524 946.414 94.518L948.836 98.205C948.881 98.2751 948.985 98.2742 949.031 98.2032L951.397 94.5207C951.418 94.4878 951.447 94.4607 951.481 94.4419C951.515 94.4231 951.553 94.4133 951.592 94.4133H955.961C956.15 94.4133 956.26 94.6254 956.152 94.7792L951.501 101.321C951.474 101.36 951.459 101.407 951.459 101.455C951.458 101.502 951.473 101.549 951.501 101.588C953.023 103.755 954.762 106.258 956.324 108.45C956.433 108.603 956.324 108.815 956.134 108.815H951.532C951.494 108.815 951.456 108.805 951.422 108.787C951.388 108.769 951.359 108.743 951.338 108.711L948.827 104.904C948.816 104.888 948.802 104.875 948.785 104.866C948.768 104.856 948.749 104.852 948.73 104.852C948.711 104.852 948.692 104.856 948.675 104.866C948.658 104.875 948.643 104.888 948.633 104.904C947.881 106.022 946.898 107.578 946.152 108.711C946.131 108.743 946.102 108.769 946.068 108.787C946.034 108.806 945.996 108.815 945.957 108.815H941.667C941.625 108.815 941.583 108.804 941.547 108.782C941.511 108.76 941.481 108.729 941.461 108.691C941.442 108.654 941.433 108.611 941.435 108.569C941.438 108.527 941.452 108.486 941.476 108.451L946.107 101.761C946.134 101.722 946.149 101.676 946.149 101.629C946.149 101.582 946.134 101.536 946.107 101.497H946.106ZM921.135 108.583V88.0679C921.135 87.9395 921.239 87.8357 921.368 87.8357H925.324C925.453 87.8357 925.557 87.9395 925.557 88.0679V108.583C925.557 108.711 925.453 108.815 925.324 108.815H921.368C921.337 108.815 921.307 108.809 921.279 108.797C921.251 108.786 921.225 108.769 921.203 108.747C921.182 108.726 921.164 108.7 921.153 108.672C921.141 108.644 921.135 108.614 921.135 108.583ZM914.618 108.583V88.0679C914.618 87.9395 914.723 87.8357 914.851 87.8357H918.808C918.936 87.8357 919.04 87.9395 919.04 88.0679V108.583C919.04 108.711 918.936 108.815 918.808 108.815H914.851C914.821 108.815 914.79 108.809 914.762 108.797C914.734 108.786 914.708 108.769 914.687 108.747C914.665 108.726 914.648 108.7 914.636 108.672C914.624 108.644 914.618 108.614 914.618 108.583ZM904.833 105.424C906.608 105.424 908.121 104.034 908.121 101.6C908.121 99.1081 906.637 97.8035 904.833 97.8035C902.942 97.8035 901.517 99.1081 901.517 101.6C901.517 103.976 903.001 105.425 904.833 105.425V105.424ZM908.15 106.96C907.51 108.351 906.056 109.221 904.251 109.221C900.004 109.221 897.066 106.004 897.066 101.571C897.066 97.2828 899.83 93.9781 904.106 93.9781C906.695 93.9781 907.829 95.3983 908.121 96.0647V94.6445C908.121 94.517 908.224 94.4133 908.354 94.4133H912.165C912.292 94.4133 912.397 94.517 912.397 94.6454V108.583C912.397 108.711 912.293 108.815 912.165 108.815H908.356C908.326 108.815 908.295 108.809 908.267 108.797C908.239 108.785 908.213 108.768 908.191 108.746C908.17 108.724 908.153 108.698 908.141 108.669C908.13 108.641 908.124 108.611 908.124 108.58C908.132 108.056 908.15 106.846 908.15 106.96ZM887.63 94.5726L890.28 102.6C890.316 102.71 890.471 102.706 890.502 102.596L892.766 94.5826C892.78 94.5338 892.809 94.4908 892.85 94.4602C892.89 94.4297 892.939 94.4132 892.99 94.4133H896.832C896.989 94.4133 897.101 94.5644 897.055 94.7137L892.719 108.652C892.704 108.699 892.675 108.741 892.635 108.77C892.595 108.8 892.546 108.816 892.497 108.816H888.443C888.394 108.815 888.347 108.8 888.307 108.772C888.268 108.743 888.238 108.703 888.222 108.657L885.245 99.8428C885.209 99.7372 885.059 99.7381 885.024 99.8428L882.102 108.655C882.086 108.702 882.057 108.742 882.017 108.771C881.978 108.799 881.93 108.815 881.881 108.815H877.74C877.691 108.815 877.643 108.799 877.603 108.77C877.563 108.741 877.533 108.7 877.518 108.653L873.125 94.7146C873.115 94.6798 873.112 94.6429 873.118 94.607C873.124 94.571 873.138 94.537 873.16 94.5077C873.182 94.4783 873.21 94.4545 873.243 94.4381C873.275 94.4217 873.311 94.4132 873.348 94.4133H877.452C877.555 94.4133 877.647 94.4825 877.675 94.5826L879.94 102.57C879.971 102.68 880.125 102.683 880.162 102.575L882.84 94.5726C882.856 94.5262 882.885 94.4858 882.925 94.4572C882.965 94.4286 883.012 94.4132 883.061 94.4133H887.408C887.509 94.4133 887.599 94.477 887.63 94.5726ZM871.925 98.4754C871.925 98.5093 871.918 98.5427 871.904 98.5734C871.889 98.6041 871.869 98.6313 871.843 98.6531C871.817 98.6748 871.786 98.6907 871.754 98.6994C871.721 98.7082 871.687 98.7098 871.653 98.7039C871.282 98.6411 870.906 98.6113 870.529 98.6147C868.754 98.6147 867.154 99.658 867.154 102.527V108.583C867.154 108.711 867.05 108.815 866.922 108.815H862.965C862.935 108.815 862.905 108.809 862.877 108.797C862.848 108.786 862.823 108.769 862.801 108.747C862.779 108.726 862.762 108.7 862.75 108.672C862.739 108.644 862.733 108.614 862.732 108.583V94.6454C862.732 94.518 862.836 94.4133 862.965 94.4133H866.776C866.905 94.4133 867.008 94.517 867.008 94.6454V96.3551C867.765 94.7319 869.599 94.2685 870.762 94.2685C871.115 94.2685 871.468 94.3067 871.744 94.3668C871.851 94.3905 871.925 94.4852 871.925 94.5935V98.4754ZM856.128 108.583V94.6454C856.128 94.518 856.233 94.4133 856.362 94.4133H860.318C860.446 94.4133 860.551 94.517 860.551 94.6454V108.583C860.551 108.711 860.446 108.815 860.318 108.815H856.362C856.331 108.815 856.301 108.809 856.273 108.797C856.244 108.786 856.219 108.769 856.197 108.747C856.175 108.726 856.158 108.7 856.146 108.672C856.135 108.644 856.129 108.614 856.128 108.583ZM858.311 87.4297C859.765 87.4297 860.929 88.5886 860.929 90.0088C860.929 91.429 859.765 92.5879 858.311 92.5879C856.914 92.5879 855.751 91.429 855.751 90.0088C855.751 88.5886 856.914 87.4297 858.311 87.4297ZM842.038 100.469H846.714C846.794 100.469 846.851 100.391 846.823 100.315L844.515 93.6822C844.507 93.6593 844.492 93.6393 844.472 93.6252C844.453 93.611 844.429 93.6033 844.405 93.6032C844.381 93.6031 844.357 93.6106 844.337 93.6246C844.317 93.6386 844.302 93.6584 844.294 93.6813L841.93 100.315C841.903 100.39 841.959 100.47 842.039 100.47L842.038 100.469ZM848.168 104.642H840.525C840.477 104.642 840.431 104.657 840.392 104.685C840.352 104.713 840.323 104.752 840.307 104.797L838.932 108.661C838.916 108.706 838.886 108.745 838.847 108.773C838.808 108.801 838.761 108.816 838.713 108.816H834.385C834.347 108.816 834.31 108.807 834.277 108.789C834.243 108.772 834.214 108.747 834.193 108.716C834.171 108.685 834.158 108.649 834.153 108.612C834.148 108.575 834.153 108.537 834.166 108.501L841.759 88.4202C841.776 88.376 841.805 88.3379 841.844 88.3111C841.883 88.2842 841.929 88.2699 841.977 88.27H846.978C847.075 88.27 847.162 88.3301 847.196 88.4211L854.703 108.502C854.716 108.538 854.72 108.575 854.715 108.612C854.71 108.65 854.697 108.685 854.675 108.716C854.654 108.746 854.625 108.771 854.592 108.789C854.559 108.806 854.522 108.815 854.484 108.815H849.981C849.933 108.815 849.886 108.8 849.846 108.772C849.807 108.744 849.777 108.705 849.761 108.66L848.387 104.797C848.37 104.752 848.341 104.713 848.302 104.685C848.263 104.658 848.216 104.643 848.168 104.642Z" fill="white"/>
<path fill-rule="evenodd" clip-rule="evenodd" d="M828.562 95.9774C829.128 96.5286 829.521 97.2333 829.692 98.0049C829.863 98.7764 829.804 99.5811 829.524 100.32L827.387 106.125C826.827 107.649 825.548 108.827 823.969 109.135C823.179 109.293 822.361 109.234 821.602 108.963C820.843 108.692 820.172 108.22 819.661 107.597L806.848 92.2457C806.816 92.2079 806.775 92.1792 806.729 92.1623C806.682 92.1455 806.632 92.1411 806.583 92.1497C806.535 92.1583 806.489 92.1795 806.451 92.2112C806.413 92.2429 806.384 92.284 806.367 92.3304L802.199 103.606C802.112 103.839 802.342 104.064 802.569 103.971L807.685 101.882C807.973 101.765 808.283 101.709 808.594 101.717C808.905 101.726 809.211 101.798 809.492 101.93C809.774 102.063 810.026 102.252 810.231 102.485C810.436 102.719 810.591 102.993 810.685 103.29C811.063 104.449 810.428 105.7 809.309 106.157L802.627 108.886C801.389 109.391 799.968 109.302 798.854 108.558C798.095 108.051 797.528 107.302 797.247 106.433C796.966 105.564 796.985 104.626 797.303 103.769L802.228 90.4522C802.811 88.8736 804.141 87.7593 805.784 87.4716C806.584 87.3282 807.408 87.4007 808.171 87.6815C808.934 87.9623 809.608 88.4414 810.125 89.0694L817.479 97.8819L824.243 95.1189C825.746 94.5053 827.401 94.8339 828.562 95.9774ZM824.661 100.404C824.746 100.171 824.517 99.9448 824.289 100.039L820.552 101.564L822.794 104.251C822.825 104.289 822.867 104.318 822.913 104.335C822.96 104.353 823.01 104.357 823.059 104.349C823.108 104.34 823.154 104.319 823.192 104.287C823.23 104.255 823.259 104.213 823.276 104.166L824.66 100.404H824.661Z" fill="white"/>
</g>
<g opacity="0.4" clip-path="url(#clip8_286_2018)">
<path d="M1095.24 8.87158C1091.43 8.87158 1090.09 11.5249 1090.09 14.0014V15.5176H1089.28C1088.7 15.5176 1088.24 15.9725 1088.24 16.5537C1088.24 17.1349 1088.7 17.5898 1089.28 17.5898H1090.09V28.0516C1090.09 28.6581 1090.57 29.1635 1091.2 29.1635C1091.81 29.1635 1092.31 28.6834 1092.31 28.0516V17.5898H1094.76C1095.35 17.5898 1095.8 17.1349 1095.8 16.5537C1095.8 15.9725 1095.35 15.5176 1094.76 15.5176H1092.31V14.0014C1092.31 12.6116 1092.82 10.969 1095.27 10.969C1095.85 10.969 1096.31 10.5141 1096.31 9.93292C1096.28 9.32644 1095.83 8.87158 1095.24 8.87158Z" fill="white"/>
<path d="M1103.84 15.1636C1102.19 15.1636 1100.8 15.8459 1100.02 16.9578V16.3765C1100.02 15.7701 1099.54 15.2647 1098.91 15.2647C1098.3 15.2647 1097.8 15.7448 1097.8 16.3765V28.0513C1097.8 28.6578 1098.28 29.1632 1098.91 29.1632C1099.52 29.1632 1100.02 28.6831 1100.02 28.0513V21.6075C1100.02 18.9036 1101.46 17.2863 1103.84 17.2863C1104.42 17.2863 1104.9 16.8061 1104.9 16.2249C1104.92 15.6437 1104.44 15.1636 1103.84 15.1636Z" fill="white"/>
<path d="M1117.36 20.8997C1117.36 20.2679 1117.26 18.6253 1116.29 17.2608C1115.31 15.8456 1113.77 15.1128 1111.67 15.1128C1107.78 15.1128 1105.56 17.6903 1105.56 22.1884C1105.56 26.8381 1107.78 29.3146 1111.95 29.3146C1114.75 29.3146 1116.29 27.9248 1116.57 27.6468C1116.75 27.4699 1116.95 27.2425 1116.95 26.8634C1116.95 26.3075 1116.5 25.8526 1115.94 25.8526C1115.66 25.8526 1115.49 25.9284 1115.31 26.0548C1114.5 26.6613 1113.57 27.2677 1111.97 27.2677C1109.47 27.2677 1107.88 25.6252 1107.8 22.9465H1116.02C1117.36 22.9213 1117.36 21.7083 1117.36 20.8997ZM1111.67 17.1344C1113.94 17.1344 1115.13 18.4232 1115.18 20.9502H1107.83C1108.03 18.499 1109.4 17.1344 1111.67 17.1344Z" fill="white"/>
<path d="M1124.79 21.0772C1123.14 20.5212 1121.73 20.0158 1121.73 18.8028C1121.73 17.4635 1123.22 17.2614 1124.1 17.2614C1125.7 17.2614 1126.48 17.8173 1127.11 18.4238C1127.31 18.626 1127.57 18.727 1127.84 18.727C1128.4 18.727 1128.85 18.2722 1128.85 17.7162C1128.85 17.413 1128.73 17.2108 1128.63 17.0592C1127.69 15.821 1126.1 15.1387 1124.1 15.1387C1121.27 15.1387 1119.53 16.5538 1119.53 18.8028C1119.53 21.5573 1121.96 22.3912 1124.08 23.0988C1125.7 23.6547 1127.09 24.1096 1127.09 25.2973C1127.09 26.9146 1125.29 27.1673 1124.2 27.1673C1122.74 27.1673 1121.6 26.7124 1120.67 25.8027C1120.39 25.5247 1120.09 25.4742 1119.91 25.4742C1119.35 25.4742 1118.9 25.929 1118.9 26.485C1118.9 26.7124 1118.97 26.8893 1119.15 27.142C1119.98 28.2033 1121.88 29.29 1124.2 29.29C1127.39 29.29 1129.28 27.799 1129.28 25.3225C1129.28 22.6439 1126.91 21.81 1124.79 21.0772Z" fill="white"/>
<path d="M1137.9 15.113C1136.39 15.113 1135.02 15.7195 1134.26 16.6797V9.19978C1134.26 8.59329 1133.78 8.08789 1133.15 8.08789C1132.54 8.08789 1132.04 8.56802 1132.04 9.19978V28.0766C1132.04 28.6831 1132.52 29.1885 1133.15 29.1885C1133.76 29.1885 1134.26 28.7083 1134.26 28.0766V20.9757C1134.26 18.4234 1135.5 17.1346 1137.9 17.1346C1140.23 17.1346 1141.19 18.1959 1141.19 20.7735V28.0766C1141.19 28.6831 1141.67 29.1885 1142.3 29.1885C1142.9 29.1885 1143.41 28.7083 1143.41 28.0766V20.3944C1143.36 16.8819 1141.51 15.113 1137.9 15.113Z" fill="white"/>
<path d="M1161.78 15.2905C1161.3 15.2905 1160.92 15.5685 1160.75 16.0234L1157.59 25.0195L1155.01 16.0234C1154.91 15.6696 1154.53 15.2905 1153.97 15.2905C1153.42 15.2905 1153.04 15.6696 1152.94 16.0234L1150.36 24.9943L1147.2 15.9981C1147.02 15.5432 1146.64 15.2905 1146.16 15.2905C1145.56 15.2905 1145.05 15.7707 1145.05 16.4024C1145.05 16.554 1145.08 16.7057 1145.15 16.8573L1149.37 28.4563C1149.55 28.9111 1149.93 29.1638 1150.41 29.1638C1150.92 29.1638 1151.34 28.8353 1151.47 28.3805L1153.95 19.8644L1156.42 28.3805C1156.55 28.8353 1157.01 29.1638 1157.49 29.1638C1157.97 29.1638 1158.34 28.8859 1158.52 28.431L1162.74 16.832C1162.82 16.6804 1162.84 16.5035 1162.84 16.3519C1162.87 15.7707 1162.39 15.2905 1161.78 15.2905Z" fill="white"/>
<path d="M1169.82 15.1128C1165.8 15.1128 1163.6 17.6398 1163.6 22.1884C1163.6 26.7876 1165.8 29.3146 1169.82 29.3146C1173.83 29.3146 1176.03 26.7876 1176.03 22.1884C1176.03 17.6145 1173.81 15.1128 1169.82 15.1128ZM1169.82 27.293C1167.14 27.293 1165.82 25.6252 1165.82 22.2137C1165.82 18.8528 1167.16 17.1597 1169.82 17.1597C1172.47 17.1597 1173.81 18.8528 1173.81 22.2137C1173.81 25.6252 1172.5 27.293 1169.82 27.293Z" fill="white"/>
<path d="M1184.58 15.1636C1182.93 15.1636 1181.54 15.8459 1180.76 16.9578V16.3765C1180.76 15.7701 1180.28 15.2647 1179.65 15.2647C1179.04 15.2647 1178.54 15.7448 1178.54 16.3765V28.0513C1178.54 28.6578 1179.02 29.1632 1179.65 29.1632C1180.25 29.1632 1180.76 28.6831 1180.76 28.0513V21.6075C1180.76 18.9036 1182.2 17.2863 1184.58 17.2863C1185.16 17.2863 1185.64 16.8061 1185.64 16.2249C1185.64 15.6437 1185.16 15.1636 1184.58 15.1636Z" fill="white"/>
<path d="M1192.97 20.9251L1197.54 17.261C1197.92 16.9577 1197.97 16.5787 1197.97 16.3765C1197.97 15.77 1197.49 15.2646 1196.86 15.2646C1196.68 15.2646 1196.38 15.2899 1196.1 15.5426L1189.6 20.8493V9.19978C1189.6 8.59329 1189.12 8.08789 1188.49 8.08789C1187.89 8.08789 1187.38 8.56802 1187.38 9.19978V28.0766C1187.38 28.6831 1187.86 29.1885 1188.49 29.1885C1189.1 29.1885 1189.6 28.7083 1189.6 28.0766V23.528L1191.15 22.2897L1196.12 28.6831C1196.4 29.0116 1196.71 29.1885 1197.06 29.1885C1197.67 29.1885 1198.17 28.7083 1198.17 28.0766C1198.17 27.8997 1198.15 27.647 1197.94 27.3943L1192.97 20.9251Z" fill="white"/>
<path d="M1205.42 21.0772C1203.78 20.5212 1202.37 20.0158 1202.37 18.8028C1202.37 17.4635 1203.86 17.2614 1204.74 17.2614C1206.33 17.2614 1207.12 17.8173 1207.75 18.4238C1207.95 18.626 1208.2 18.727 1208.48 18.727C1209.04 18.727 1209.49 18.2722 1209.49 17.7162C1209.49 17.3877 1209.32 17.1603 1209.26 17.0592C1208.33 15.821 1206.74 15.1387 1204.74 15.1387C1201.91 15.1387 1200.17 16.5538 1200.17 18.8028C1200.17 21.5573 1202.59 22.3912 1204.72 23.0988C1206.33 23.6547 1207.72 24.1096 1207.72 25.2973C1207.72 26.9146 1205.93 27.1673 1204.84 27.1673C1203.38 27.1673 1202.24 26.7124 1201.3 25.8027C1201.03 25.5247 1200.75 25.4742 1200.55 25.4742C1199.99 25.4742 1199.54 25.929 1199.54 26.485C1199.54 26.7124 1199.61 26.8893 1199.79 27.142C1200.62 28.2033 1202.52 29.29 1204.84 29.29C1208.03 29.29 1209.92 27.799 1209.92 25.3225C1209.92 22.6439 1207.55 21.81 1205.42 21.0772Z" fill="white"/>
<path d="M1058.45 27.4447C1058.88 30.2497 1060.2 32.7767 1062.09 34.672L1066.51 30.2497C1066.51 25.7769 1068.84 21.4304 1072.98 19.0298L1058.45 27.4447Z" fill="white"/>
<path d="M1066.51 30.2502C1064.31 30.2502 1062.09 29.6942 1060.04 28.5065C1059.49 28.178 1058.96 27.8242 1058.45 27.4199C1058.88 30.2249 1060.2 32.7519 1062.09 34.6472L1066.51 30.2502Z" fill="white"/>
<path d="M1066.51 30.2499L1062.09 34.6722C1064.01 36.5927 1066.51 37.9068 1069.32 38.3111L1077.71 23.7808C1075.33 27.9251 1070.99 30.2499 1066.51 30.2499Z" fill="white"/>
<path d="M1068.26 36.7436C1067.07 34.6967 1066.51 32.4729 1066.51 30.2744L1062.09 34.6967C1064.01 36.6172 1066.51 37.9313 1069.32 38.3356C1068.94 37.8302 1068.59 37.2995 1068.26 36.7436Z" fill="white"/>
<path d="M1082.99 13.2676L1073.01 19.0544C1068.86 21.4551 1063.94 21.2782 1060.07 19.0544C1058.96 20.9497 1058.33 23.1735 1058.33 25.5236C1058.33 26.1806 1058.38 26.8124 1058.48 27.4441C1058.98 27.8485 1059.51 28.2022 1060.07 28.5307C1062.12 29.7184 1064.34 30.2744 1066.54 30.2744L1083.27 13.5456C1083.17 13.4445 1083.09 13.3434 1082.99 13.2676Z" fill="white"/>
<path d="M1060.04 28.5315C1062.09 29.7192 1064.31 30.2751 1066.51 30.2751C1066.51 25.8023 1068.84 21.4558 1072.98 19.0552L1058.43 27.4449C1058.96 27.8239 1059.49 28.203 1060.04 28.5315Z" fill="white"/>
<path d="M1060.04 19.0552C1058.93 20.9504 1058.3 23.1742 1058.3 25.5243C1058.3 26.1814 1058.35 26.8131 1058.45 27.4449L1073.01 19.0552C1068.84 21.4306 1063.91 21.2789 1060.04 19.0552Z" fill="white"/>
<path d="M1083.27 13.5208C1083.19 13.445 1083.09 13.3439 1082.99 13.2681C1082.86 13.167 1082.74 13.066 1082.59 12.9901C1082.11 12.7122 1081.55 12.5605 1080.97 12.5605H1071.26C1066.46 12.5605 1062.29 15.1634 1060.04 19.0297C1063.91 21.2535 1068.84 21.4304 1072.98 19.0297C1068.84 21.4304 1066.51 25.7768 1066.51 30.2496C1070.99 30.2496 1075.33 27.9248 1077.73 23.7805L1083.5 13.7988C1083.42 13.6977 1083.34 13.5966 1083.27 13.5208Z" fill="white"/>
<path d="M1073.01 19.0547L1082.99 13.2931C1082.86 13.192 1082.74 13.0909 1082.59 13.0151L1060.04 19.0547C1063.91 21.2785 1068.84 21.4301 1073.01 19.0547Z" fill="white"/>
<path d="M1080.97 12.5605H1071.26C1066.46 12.5605 1062.29 15.1634 1060.04 19.0297L1082.59 12.9901C1082.11 12.7374 1081.57 12.5605 1080.97 12.5605Z" fill="white"/>
<path d="M1077.73 23.7802L1083.49 13.7985C1083.42 13.6974 1083.34 13.6216 1083.24 13.5205L1066.51 30.2493C1066.51 32.4478 1067.07 34.6716 1068.26 36.7185C1068.58 37.2744 1068.94 37.8051 1069.34 38.3105C1069.97 38.4116 1070.61 38.4621 1071.26 38.4621C1073.61 38.4621 1075.84 37.8304 1077.73 36.7185C1075.51 32.8522 1075.33 27.9245 1077.73 23.7802Z" fill="white"/>
<path d="M1066.51 30.2499C1066.51 32.4484 1067.07 34.6722 1068.26 36.7191C1068.58 37.275 1068.94 37.8057 1069.34 38.3111L1077.73 23.7808C1075.33 27.9251 1070.99 30.2499 1066.51 30.2499Z" fill="white"/>
<path d="M1077.73 23.7808L1069.34 38.3364C1069.98 38.4374 1070.61 38.488 1071.26 38.488C1073.61 38.488 1075.84 37.8562 1077.73 36.7443C1075.51 32.8527 1075.33 27.9251 1077.73 23.7808Z" fill="white"/>
<path d="M1083.77 14.2026C1083.7 14.0509 1083.6 13.9246 1083.49 13.7983C1083.42 13.6972 1083.34 13.6214 1083.24 13.5203C1083.17 13.4445 1083.07 13.3434 1082.96 13.2676L1073.01 19.0544C1068.86 21.4551 1066.54 25.8016 1066.54 30.2744C1071.01 30.2744 1075.36 27.9495 1077.76 23.8052C1075.36 27.9495 1075.53 32.8772 1077.76 36.7435C1081.62 34.4945 1084.23 30.3249 1084.23 25.5236V15.8199C1084.2 15.2134 1084.05 14.6574 1083.77 14.2026Z" fill="white"/>
<path d="M1082.99 13.2676L1073.01 19.0544C1068.86 21.4551 1066.54 25.8016 1066.54 30.2744L1083.27 13.5456C1083.17 13.4445 1083.09 13.3434 1082.99 13.2676Z" fill="white"/>
<path d="M1066.51 30.2493C1070.99 30.2493 1075.33 27.9245 1077.73 23.7802L1083.49 13.7985C1083.42 13.6974 1083.34 13.6216 1083.24 13.5205L1066.51 30.2493Z" fill="white"/>
<path d="M1083.49 13.7988L1077.73 23.7805C1075.33 27.9248 1075.51 32.8525 1077.73 36.7188L1083.77 14.1779C1083.7 14.0515 1083.6 13.9252 1083.49 13.7988Z" fill="white"/>
<path d="M1077.73 36.7441C1081.6 34.4951 1084.2 30.3255 1084.2 25.5242V15.8204C1084.2 15.2392 1084.05 14.6833 1083.77 14.2031L1077.73 36.7441Z" fill="white"/>
</g>
<g opacity="0.4" clip-path="url(#clip9_286_2018)">
<path d="M1065.04 105.335H1058.36V108.676H1065.04V105.335Z" fill="white"/>
<path d="M1075.06 105.335H1068.38V108.676H1075.06V105.335Z" fill="white"/>
<path d="M1075.06 98.6533H1058.35V101.994H1075.06V98.6533Z" fill="white"/>
<path d="M1068.38 91.9724H1058.36V95.313H1068.38V91.9724Z" fill="white"/>
<path d="M1075.06 91.9724H1071.72V95.313H1075.06V91.9724Z" fill="white"/>
<path d="M1123.56 91.9533C1118.19 91.9533 1115.42 95.7475 1115.42 100.428C1115.42 105.108 1118.13 108.903 1123.56 108.903C1128.99 108.903 1131.7 105.108 1131.7 100.428C1131.7 95.7475 1128.92 91.9533 1123.56 91.9533ZM1127.62 100.443C1127.61 103.453 1126.6 105.891 1123.56 105.891C1120.52 105.891 1119.5 103.453 1119.5 100.443V100.428C1119.5 97.4186 1120.52 94.981 1123.56 94.981C1126.6 94.981 1127.61 97.4186 1127.62 100.428V100.436C1127.62 100.438 1127.62 100.441 1127.62 100.443Z" fill="white"/>
<path d="M1099.54 108.675V85.2442C1099.54 85.2442 1102.63 84.8052 1102.87 84.773C1103.14 84.7363 1103.5 84.9296 1103.5 85.3116V93.9976C1104.14 93.3879 1104.85 92.8964 1105.62 92.5219C1106.39 92.1478 1107.29 91.9605 1108.33 91.9605C1109.22 91.9605 1110.02 92.1128 1110.72 92.4178C1111.41 92.7221 1111.99 93.1504 1112.46 93.7006C1112.92 94.2518 1113.27 94.9093 1113.52 95.6739C1113.76 96.4385 1113.88 97.2807 1113.88 98.2004V108.675H1109.91V98.2004C1109.91 97.1953 1109.68 96.4172 1109.22 95.8661C1108.75 95.3156 1108.05 95.0402 1107.12 95.0402C1106.44 95.0402 1105.8 95.1953 1105.2 95.5057C1104.6 95.816 1104.03 96.2379 1103.5 96.773V108.675H1099.54Z" fill="white"/>
<path d="M1152.43 108.901C1149.7 108.901 1148 107.314 1148 104.354V95.5807H1144.92C1144.92 95.5807 1145.58 93.3219 1145.63 93.144C1145.68 92.9663 1145.81 92.7754 1146.09 92.7377C1146.36 92.6999 1147.99 92.4719 1147.99 92.4719L1148.75 87.668C1148.75 87.668 1150.97 87.3552 1151.32 87.3028C1151.65 87.253 1151.95 87.4922 1151.95 87.8541V92.4719H1155.84V95.5807H1151.95V104.236C1151.95 105.417 1152.67 105.869 1153.36 105.869C1153.78 105.869 1154.36 105.645 1154.79 105.445C1155.06 105.322 1155.47 105.414 1155.57 105.785C1155.67 106.114 1156.17 107.862 1156.17 107.862C1155.74 108.141 1154.37 108.901 1152.43 108.901Z" fill="white"/>
<path d="M1142.75 95.6331C1141.97 95.3823 1140.52 94.9808 1139.14 94.9808C1137.74 94.9808 1136.63 95.4668 1136.63 96.6365C1136.63 98.0974 1139.01 98.5227 1140.65 99.1183C1141.74 99.5164 1144.67 100.293 1144.67 103.441C1144.67 107.266 1141.49 108.901 1138.1 108.901C1134.71 108.901 1132.71 107.641 1132.71 107.641C1132.71 107.641 1133.24 105.784 1133.34 105.418C1133.44 105.088 1133.82 104.972 1134.07 105.066C1134.94 105.402 1136.51 105.869 1138.29 105.869C1140.1 105.869 1140.97 105.319 1140.97 104.146C1140.97 102.585 1138.53 102.108 1136.92 101.6C1135.82 101.25 1132.88 100.436 1132.88 96.9726C1132.88 93.5614 1135.88 91.9609 1139.08 91.9609C1141.79 91.9609 1143.12 92.5277 1144.11 93.0335C1144.11 93.0335 1143.56 94.9616 1143.47 95.2489C1143.38 95.5903 1143.1 95.7469 1142.75 95.6331Z" fill="white"/>
<path d="M1097.99 92.5257C1097.99 92.1566 1097.67 91.9455 1097.37 91.9798C1096.04 92.1322 1095.1 92.7579 1094.48 93.3404C1093.28 92.3963 1091.6 91.9455 1089.73 91.9455C1085.96 91.9455 1083.02 93.7621 1083.02 97.7235C1083.02 99.9975 1083.99 101.564 1085.53 102.487C1084.39 103.027 1083.63 104.174 1083.63 105.301C1083.63 107.187 1085.11 107.778 1085.11 107.778C1085.11 107.778 1082.51 109.042 1082.51 111.571C1082.51 114.809 1085.49 116.119 1089.13 116.119C1094.38 116.119 1097.99 113.951 1097.99 109.97C1097.99 107.52 1096.12 106.168 1092.03 106.007C1089.61 105.912 1088.04 105.824 1087.65 105.696C1087.13 105.525 1086.88 105.113 1086.88 104.659C1086.88 104.157 1087.29 103.68 1087.94 103.352C1088.51 103.452 1089.11 103.502 1089.73 103.502C1093.49 103.502 1096.43 101.69 1096.43 97.7237C1096.43 96.7618 1096.26 95.9268 1095.94 95.2134C1096.5 94.9181 1097.18 94.7103 1097.99 94.7103C1097.99 94.7103 1097.99 92.8622 1097.99 92.5257ZM1087.62 108.696C1087.62 108.696 1089.59 108.771 1091.57 108.862C1093.79 108.965 1094.48 109.443 1094.48 110.592C1094.48 111.996 1092.55 113.361 1089.86 113.361C1087.3 113.361 1086.02 112.471 1086.02 110.99C1086.02 110.14 1086.47 109.188 1087.62 108.696ZM1089.73 100.737C1087.95 100.737 1086.56 99.7895 1086.56 97.7235C1086.56 95.6572 1087.95 94.7101 1089.73 94.7101C1091.52 94.7101 1092.91 95.6547 1092.91 97.7235C1092.91 99.7922 1091.52 100.737 1089.73 100.737Z" fill="white"/>
</g>
<defs>
<clipPath id="clip0_286_2018">
<rect width="121.6" height="45.6" fill="white"/>
</clipPath>
<clipPath id="clip1_286_2018">
<rect width="146.3" height="45.6" fill="white" transform="translate(0 76)"/>
</clipPath>
<clipPath id="clip2_286_2018">
<rect width="153.9" height="45.6" fill="white" transform="translate(285.95)"/>
</clipPath>
<clipPath id="clip3_286_2018">
<rect width="128.25" height="45.6" fill="white" transform="translate(285.95 76)"/>
</clipPath>
<clipPath id="clip4_286_2018">
<rect width="121.6" height="45.6" fill="white" transform="translate(541.5)"/>
</clipPath>
<clipPath id="clip5_286_2018">
<rect width="153.9" height="45.6" fill="white" transform="translate(541.5 76)"/>
</clipPath>
<clipPath id="clip6_286_2018">
<rect width="136.8" height="45.6" fill="white" transform="translate(797.05)"/>
</clipPath>
<clipPath id="clip7_286_2018">
<rect width="159.6" height="45.6" fill="white" transform="translate(797.05 76)"/>
</clipPath>
<clipPath id="clip8_286_2018">
<rect width="152" height="45.6" fill="white" transform="translate(1058.3)"/>
</clipPath>
<clipPath id="clip9_286_2018">
<rect width="98.8" height="45.6" fill="white" transform="translate(1058.3 76)"/>
</clipPath>
</defs>
</svg>
